AmstelvarA2-Italic_XUCS114.ufo
<glyph name="exclam" format="2">
  <advance width="374"/>
  <unicode hex="0021"/>
  <outline>
    <contour>
      <point x="-20" y="124" type="qcurve" smooth="yes"/>
      <point x="-20" y="179"/>
      <point x="57" y="260"/>
      <point x="117" y="260" type="qcurve" smooth="yes"/>
      <point x="176" y="260"/>
      <point x="253" y="179"/>
      <point x="253" y="124" type="qcurve" smooth="yes"/>
      <point x="253" y="70"/>
      <point x="176" y="-12"/>
      <point x="117" y="-12" type="qcurve" smooth="yes"/>
      <point x="57" y="-12"/>
      <point x="-20" y="70"/>
    </contour>
    <contour>
      <point x="266" y="1375" type="line" smooth="yes"/>
      <point x="278" y="1460"/>
      <point x="328" y="1570"/>
      <point x="391" y="1570" type="qcurve" smooth="yes"/>
      <point x="453" y="1570"/>
      <point x="476" y="1455"/>
      <point x="455" y="1376" type="qcurve" smooth="yes"/>
      <point x="385" y="1108" type="line"/>
      <point x="306" y="800" type="line"/>
      <point x="222" y="435" type="line"/>
      <point x="130" y="450" type="line"/>
      <point x="186" y="800" type="line"/>
      <point x="229" y="1108" type="line"/>
    </contour>
  </outline>
</glyph>
<glyph name="comma" format="2">
  <advance width="308"/>
  <unicode hex="002C"/>
  <outline>
    <contour>
      <point x="-51" y="-195" type="line"/>
      <point x="-10" y="-164"/>
      <point x="100" y="-52"/>
      <point x="120" y="4" type="qcurve"/>
      <point x="54" y="4"/>
      <point x="-19" y="74"/>
      <point x="-19" y="128" type="qcurve" smooth="yes"/>
      <point x="-19" y="181"/>
      <point x="63" y="258"/>
      <point x="121" y="258" type="qcurve" smooth="yes"/>
      <point x="175" y="258"/>
      <point x="257" y="163"/>
      <point x="257" y="87" type="qcurve" smooth="yes"/>
      <point x="257" y="-9"/>
      <point x="92" y="-198"/>
      <point x="-2" y="-254" type="qcurve"/>
    </contour>
  </outline>
</glyph>
<glyph name="period" format="2">
  <advance width="274"/>
  <unicode hex="002E"/>
  <outline>
    <contour>
      <point x="-51" y="121" type="qcurve" smooth="yes"/>
      <point x="-51" y="176"/>
      <point x="26" y="258"/>
      <point x="86" y="258" type="qcurve" smooth="yes"/>
      <point x="146" y="258"/>
      <point x="223" y="176"/>
      <point x="223" y="121" type="qcurve" smooth="yes"/>
      <point x="223" y="67"/>
      <point x="146" y="-15"/>
      <point x="86" y="-15" type="qcurve" smooth="yes"/>
      <point x="26" y="-15"/>
      <point x="-51" y="67"/>
    </contour>
  </outline>
</glyph>
<glyph name="colon" format="2">
  <advance width="356"/>
  <unicode hex="003A"/>
  <outline>
    <contour>
      <point x="-46" y="121" type="qcurve" smooth="yes"/>
      <point x="-46" y="176"/>
      <point x="31" y="258"/>
      <point x="91" y="258" type="qcurve" smooth="yes"/>
      <point x="151" y="258"/>
      <point x="228" y="176"/>
      <point x="228" y="121" type="qcurve" smooth="yes"/>
      <point x="228" y="67"/>
      <point x="151" y="-15"/>
      <point x="91" y="-15" type="qcurve" smooth="yes"/>
      <point x="31" y="-15"/>
      <point x="-46" y="67"/>
    </contour>
    <contour>
      <point x="91" y="901" type="qcurve" smooth="yes"/>
      <point x="91" y="956"/>
      <point x="168" y="1038"/>
      <point x="228" y="1038" type="qcurve" smooth="yes"/>
      <point x="288" y="1038"/>
      <point x="365" y="956"/>
      <point x="365" y="901" type="qcurve" smooth="yes"/>
      <point x="365" y="847"/>
      <point x="288" y="765"/>
      <point x="228" y="765" type="qcurve" smooth="yes"/>
      <point x="168" y="765"/>
      <point x="91" y="847"/>
    </contour>
  </outline>
</glyph>
<glyph name="semicolon" format="2">
  <advance width="392"/>
  <unicode hex="003B"/>
  <outline>
    <contour>
      <point x="127" y="901" type="qcurve" smooth="yes"/>
      <point x="127" y="956"/>
      <point x="204" y="1038"/>
      <point x="264" y="1038" type="qcurve" smooth="yes"/>
      <point x="324" y="1038"/>
      <point x="401" y="956"/>
      <point x="401" y="901" type="qcurve" smooth="yes"/>
      <point x="401" y="847"/>
      <point x="324" y="765"/>
      <point x="264" y="765" type="qcurve" smooth="yes"/>
      <point x="204" y="765"/>
      <point x="127" y="847"/>
    </contour>
    <contour>
      <point x="-46" y="-195" type="line"/>
      <point x="-5" y="-164"/>
      <point x="105" y="-52"/>
      <point x="125" y="4" type="qcurve"/>
      <point x="59" y="4"/>
      <point x="-14" y="74"/>
      <point x="-14" y="128" type="qcurve" smooth="yes"/>
      <point x="-14" y="181"/>
      <point x="68" y="258"/>
      <point x="126" y="258" type="qcurve" smooth="yes"/>
      <point x="180" y="258"/>
      <point x="262" y="163"/>
      <point x="262" y="87" type="qcurve" smooth="yes"/>
      <point x="262" y="-9"/>
      <point x="97" y="-198"/>
      <point x="3" y="-254" type="qcurve"/>
    </contour>
  </outline>
</glyph>
<glyph name="question" format="2">
  <advance width="793"/>
  <unicode hex="003F"/>
  <outline>
    <contour>
      <point x="46.415841584158414" y="1234" type="qcurve" smooth="yes"/>
      <point x="74.41584158415841" y="1377"/>
      <point x="338.41584158415844" y="1540"/>
      <point x="542.4158415841584" y="1540" type="qcurve" smooth="yes"/>
      <point x="713.4158415841584" y="1540"/>
      <point x="914.4158415841584" y="1395"/>
      <point x="914.4158415841584" y="1256" type="qcurve" smooth="yes"/>
      <point x="914.4158415841584" y="1112"/>
      <point x="726.4158415841584" y="881"/>
      <point x="510.41584158415844" y="737" type="qcurve" smooth="yes"/>
      <point x="437.41584158415844" y="688"/>
      <point x="308.41584158415844" y="597"/>
      <point x="286.41584158415844" y="522" type="qcurve" smooth="yes"/>
      <point x="260.41584158415844" y="435" type="line"/>
      <point x="160.41584158415841" y="435" type="line"/>
      <point x="171.41584158415841" y="519" type="line" smooth="yes"/>
      <point x="181.41584158415841" y="593"/>
      <point x="318.41584158415844" y="762"/>
      <point x="433.41584158415844" y="842" type="qcurve" smooth="yes"/>
      <point x="571.4158415841584" y="938"/>
      <point x="728.4158415841584" y="1125"/>
      <point x="728.4158415841584" y="1233" type="qcurve" smooth="yes"/>
      <point x="728.4158415841584" y="1325"/>
      <point x="605.4158415841584" y="1429"/>
      <point x="488.41584158415844" y="1429" type="qcurve" smooth="yes"/>
      <point x="366.41584158415844" y="1429"/>
      <point x="211.41584158415841" y="1342"/>
      <point x="201.41584158415841" y="1289" type="qcurve" smooth="yes"/>
      <point x="195.41584158415841" y="1260"/>
      <point x="295.41584158415844" y="1204"/>
      <point x="288.41584158415844" y="1155" type="qcurve" smooth="yes"/>
      <point x="283.41584158415844" y="1115"/>
      <point x="219.41584158415841" y="1051"/>
      <point x="159.41584158415841" y="1051" type="qcurve" smooth="yes"/>
      <point x="93.41584158415841" y="1051"/>
      <point x="28.415841584158414" y="1144"/>
    </contour>
    <contour>
      <point x="49.415841584158414" y="124" type="qcurve" smooth="yes"/>
      <point x="49.415841584158414" y="179"/>
      <point x="126.41584158415841" y="260"/>
      <point x="186.41584158415841" y="260" type="qcurve" smooth="yes"/>
      <point x="245.41584158415841" y="260"/>
      <point x="322.41584158415844" y="179"/>
      <point x="322.41584158415844" y="124" type="qcurve" smooth="yes"/>
      <point x="322.41584158415844" y="70"/>
      <point x="245.41584158415841" y="-12"/>
      <point x="186.41584158415841" y="-12" type="qcurve" smooth="yes"/>
      <point x="126.41584158415841" y="-12"/>
      <point x="49.415841584158414" y="70"/>
    </contour>
  </outline>
</glyph>
<glyph name="A" format="2">
  <advance width="1217"/>
  <unicode hex="0041"/>
  <anchor x="463.0" y="0" name="bottom"/>
  <anchor x="1038" y="0" name="ogonek"/>
  <anchor x="453.0" y="1500" name="tonos"/>
  <anchor x="894.0" y="1500" name="top"/>
  <outline>
    <contour>
      <point x="-238" y="0" type="line"/>
      <point x="-219" y="100" type="line"/>
      <point x="-35" y="125" type="line"/>
      <point x="292" y="660" type="line"/>
      <point x="847" y="1531" type="line"/>
      <point x="967" y="1513" type="line"/>
      <point x="1008" y="655" type="line"/>
      <point x="1040" y="120" type="line"/>
      <point x="1207" y="100" type="line"/>
      <point x="1188" y="0" type="line"/>
      <point x="685" y="0" type="line"/>
      <point x="704" y="100" type="line"/>
      <point x="869" y="116" type="line"/>
      <point x="852" y="648" type="line"/>
      <point x="831" y="1166" type="line"/>
      <point x="826" y="1287" type="line"/>
      <point x="816" y="1287" type="line"/>
      <point x="739" y="1167" type="line"/>
      <point x="390" y="625" type="line"/>
      <point x="101" y="119" type="line"/>
      <point x="270" y="100" type="line"/>
      <point x="251" y="0" type="line"/>
    </contour>
    <contour>
      <point x="311" y="587" type="line"/>
      <point x="376" y="696" type="line"/>
      <point x="626" y="690" type="line"/>
      <point x="607" y="601" type="line"/>
    </contour>
    <contour>
      <point x="626" y="690" type="line"/>
      <point x="935" y="698" type="line"/>
      <point x="938" y="599" type="line"/>
      <point x="607" y="601" type="line"/>
    </contour>
  </outline>
</glyph>
<glyph name="B" format="2">
  <advance width="952"/>
  <unicode hex="0042"/>
  <anchor x="475" y="0" name="bottom"/>
  <anchor x="475" y="1500" name="top"/>
  <outline>
    <contour>
      <point x="-221" y="0" type="line"/>
      <point x="-202" y="100" type="line"/>
      <point x="-6" y="126" type="line"/>
      <point x="122" y="784" type="line"/>
      <point x="231" y="1362" type="line"/>
      <point x="38" y="1386" type="line"/>
      <point x="51" y="1500" type="line"/>
      <point x="599" y="1500" type="line" smooth="yes"/>
      <point x="791" y="1500"/>
      <point x="957" y="1308"/>
      <point x="943" y="1163" type="qcurve" smooth="yes"/>
      <point x="930" y="1028"/>
      <point x="755" y="854"/>
      <point x="649" y="830" type="qcurve"/>
      <point x="648" y="823" type="line"/>
      <point x="794" y="789"/>
      <point x="944" y="575"/>
      <point x="918" y="413" type="qcurve" smooth="yes"/>
      <point x="888" y="226"/>
      <point x="581" y="0"/>
      <point x="371" y="0" type="qcurve" smooth="yes"/>
    </contour>
    <contour>
      <point x="158" y="125" type="line"/>
      <point x="193" y="105" type="line"/>
      <point x="343" y="105" type="line" smooth="yes"/>
      <point x="511" y="105"/>
      <point x="713" y="251"/>
      <point x="738" y="420" type="qcurve" smooth="yes"/>
      <point x="759" y="565"/>
      <point x="634" y="743"/>
      <point x="494" y="743" type="qcurve" smooth="yes"/>
      <point x="273" y="743" type="line"/>
      <point x="271" y="729" type="line"/>
    </contour>
    <contour>
      <point x="300" y="880" type="line"/>
      <point x="295" y="857" type="line"/>
      <point x="447" y="857" type="line" smooth="yes"/>
      <point x="576" y="857"/>
      <point x="744" y="991"/>
      <point x="757" y="1129" type="qcurve" smooth="yes"/>
      <point x="769" y="1257"/>
      <point x="659" y="1380"/>
      <point x="536" y="1380" type="qcurve" smooth="yes"/>
      <point x="423" y="1380" type="line"/>
      <point x="394" y="1362" type="line"/>
    </contour>
  </outline>
</glyph>
<glyph name="C" format="2">
  <advance width="1169"/>
  <unicode hex="0043"/>
  <anchor x="522.0728155339806" y="0" name="bottom"/>
  <anchor x="832.0728155339806" y="1500" name="top"/>
  <outline>
    <contour>
      <point x="23.072815533980588" y="839" type="qcurve" smooth="yes"/>
      <point x="110.07281553398059" y="1165"/>
      <point x="649.0728155339806" y="1565"/>
      <point x="922.0728155339806" y="1523" type="qcurve" smooth="yes"/>
      <point x="999.0728155339805" y="1512"/>
      <point x="1119.0728155339805" y="1473"/>
      <point x="1169.0728155339805" y="1448" type="qcurve"/>
      <point x="1195.0728155339805" y="1434" type="line"/>
      <point x="1219.0728155339805" y="1420" type="line"/>
      <point x="1156.0728155339805" y="1055" type="line"/>
      <point x="1048.0728155339805" y="1055" type="line"/>
      <point x="1058.0728155339805" y="1264" type="line"/>
      <point x="1027.0728155339805" y="1323"/>
      <point x="911.0728155339806" y="1381"/>
      <point x="859.0728155339806" y="1389" type="qcurve" smooth="yes"/>
      <point x="638.0728155339806" y="1423"/>
      <point x="287.0728155339806" y="1151"/>
      <point x="210.0728155339806" y="842" type="qcurve" smooth="yes"/>
      <point x="137.0728155339806" y="552"/>
      <point x="301.0728155339806" y="151"/>
      <point x="497.0728155339806" y="121" type="qcurve" smooth="yes"/>
      <point x="688.0728155339806" y="92"/>
      <point x="973.0728155339806" y="215"/>
      <point x="1063.0728155339805" y="351" type="qcurve"/>
      <point x="1087.0728155339805" y="337" type="line"/>
      <point x="1110.0728155339805" y="262" type="line"/>
      <point x="986.0728155339805" y="84"/>
      <point x="650.0728155339806" y="-40"/>
      <point x="448.0728155339806" y="-16" type="qcurve" smooth="yes"/>
      <point x="180.0728155339806" y="16"/>
      <point x="-61.92718446601941" y="523"/>
    </contour>
  </outline>
</glyph>
<glyph name="D" format="2">
  <advance width="1180"/>
  <unicode hex="0044"/>
  <anchor x="532.0" y="0" name="bottom"/>
  <anchor x="294.0" y="754.0" name="center"/>
  <anchor x="673.0" y="1500" name="top"/>
  <outline>
    <contour>
      <point x="-219" y="0" type="line"/>
      <point x="-200" y="100" type="line"/>
      <point x="-4" y="125" type="line"/>
      <point x="114" y="754" type="line"/>
      <point x="223" y="1362" type="line"/>
      <point x="20" y="1386" type="line"/>
      <point x="33" y="1500" type="line"/>
      <point x="631" y="1500" type="line" smooth="yes"/>
      <point x="964" y="1500"/>
      <point x="1292" y="1087"/>
      <point x="1224" y="755" type="qcurve" smooth="yes"/>
      <point x="1154" y="410"/>
      <point x="683" y="0"/>
      <point x="323" y="0" type="qcurve" smooth="yes"/>
    </contour>
    <contour>
      <point x="159" y="128" type="line"/>
      <point x="189" y="122"/>
      <point x="321" y="106"/>
      <point x="389" y="106" type="qcurve" smooth="yes"/>
      <point x="651" y="106"/>
      <point x="981" y="440"/>
      <point x="1043" y="762" type="qcurve" smooth="yes"/>
      <point x="1102" y="1065"/>
      <point x="856" y="1379"/>
      <point x="616" y="1379" type="qcurve" smooth="yes"/>
      <point x="545" y="1379"/>
      <point x="421" y="1367"/>
      <point x="388" y="1362" type="qcurve"/>
      <point x="274" y="754" type="line"/>
    </contour>
  </outline>
</glyph>
<glyph name="E" format="2">
  <advance width="997"/>
  <unicode hex="0045"/>
  <anchor x="373.0" y="0" name="bottom"/>
  <anchor x="682" y="0" name="ogonek"/>
  <anchor x="644.0" y="1500" name="top"/>
  <anchor x="-104.0" y="1500" name="tonos"/>
  <outline>
    <contour>
      <point x="-211" y="0" type="line"/>
      <point x="-192" y="100" type="line"/>
      <point x="-6" y="127" type="line"/>
      <point x="122" y="783" type="line"/>
      <point x="231" y="1362" type="line"/>
      <point x="38" y="1386" type="line"/>
      <point x="51" y="1500" type="line"/>
      <point x="1028" y="1500" type="line"/>
      <point x="990" y="1152" type="line"/>
      <point x="891" y="1152" type="line"/>
      <point x="884" y="1382" type="line"/>
      <point x="431" y="1382" type="line"/>
      <point x="396" y="1362" type="line"/>
      <point x="281" y="794" type="line"/>
      <point x="162" y="136" type="line"/>
      <point x="177" y="108" type="line"/>
      <point x="713" y="108" type="line"/>
      <point x="804" y="378" type="line"/>
      <point x="904" y="378" type="line"/>
      <point x="825" y="0" type="line"/>
    </contour>
    <contour>
      <point x="198" y="776" type="line"/>
      <point x="216" y="858" type="line"/>
      <point x="634" y="865" type="line"/>
      <point x="693" y="1024" type="line"/>
      <point x="803" y="1024" type="line"/>
      <point x="718" y="588" type="line"/>
      <point x="618" y="588" type="line"/>
      <point x="622" y="749" type="line"/>
    </contour>
  </outline>
</glyph>
<glyph name="F" format="2">
  <advance width="864"/>
  <unicode hex="0046"/>
  <anchor x="442.0" y="0" name="bottom"/>
  <anchor x="486.0" y="1500" name="top"/>
  <outline>
    <contour>
      <point x="-212" y="0" type="line"/>
      <point x="-193" y="100" type="line"/>
      <point x="-6" y="127" type="line"/>
      <point x="117" y="760" type="line"/>
      <point x="230" y="1362" type="line"/>
      <point x="47" y="1386" type="line"/>
      <point x="60" y="1500" type="line"/>
      <point x="967" y="1500" type="line"/>
      <point x="930" y="1152" type="line"/>
      <point x="840" y="1152" type="line"/>
      <point x="826" y="1392" type="line"/>
      <point x="422" y="1392" type="line"/>
      <point x="396" y="1372" type="line"/>
      <point x="277" y="760" type="line"/>
      <point x="157" y="122" type="line"/>
      <point x="367" y="100" type="line"/>
      <point x="348" y="0" type="line"/>
    </contour>
    <contour>
      <point x="196" y="751" type="line"/>
      <point x="215" y="851" type="line"/>
      <point x="601" y="858" type="line"/>
      <point x="666" y="1019" type="line"/>
      <point x="766" y="1019" type="line"/>
      <point x="675" y="553" type="line"/>
      <point x="575" y="553" type="line"/>
      <point x="578" y="742" type="line"/>
    </contour>
  </outline>
</glyph>
<glyph name="G" format="2">
  <advance width="1249"/>
  <unicode hex="0047"/>
  <anchor x="591.3697270471464" y="0" name="bottom"/>
  <anchor x="831.3697270471464" y="1492" name="top"/>
  <outline>
    <contour>
      <point x="21.369727047146412" y="839" type="qcurve" smooth="yes"/>
      <point x="108.36972704714641" y="1173"/>
      <point x="644.3697270471464" y="1562"/>
      <point x="930.3697270471464" y="1523" type="qcurve" smooth="yes"/>
      <point x="997.3697270471464" y="1514"/>
      <point x="1121.3697270471464" y="1477"/>
      <point x="1154.3697270471464" y="1461" type="qcurve" smooth="yes"/>
      <point x="1195.3697270471464" y="1441" type="line"/>
      <point x="1237.3697270471464" y="1420" type="line"/>
      <point x="1175.3697270471464" y="1076" type="line"/>
      <point x="1067.3697270471464" y="1076" type="line"/>
      <point x="1078.3697270471464" y="1290" type="line"/>
      <point x="1046.3697270471464" y="1322"/>
      <point x="933.3697270471464" y="1381"/>
      <point x="867.3697270471464" y="1389" type="qcurve" smooth="yes"/>
      <point x="655.3697270471464" y="1416"/>
      <point x="285.3697270471464" y="1151"/>
      <point x="208.3697270471464" y="842" type="qcurve" smooth="yes"/>
      <point x="135.3697270471464" y="552"/>
      <point x="299.3697270471464" y="155"/>
      <point x="495.3697270471464" y="121" type="qcurve" smooth="yes"/>
      <point x="629.3697270471464" y="98"/>
      <point x="871.3697270471464" y="154"/>
      <point x="971.3697270471464" y="223" type="qcurve"/>
      <point x="1044.3697270471464" y="586" type="line"/>
      <point x="875.3697270471464" y="611" type="line"/>
      <point x="887.3697270471464" y="712" type="line"/>
      <point x="1337.3697270471464" y="712" type="line"/>
      <point x="1323.3697270471464" y="610" type="line"/>
      <point x="1203.3697270471464" y="585" type="line"/>
      <point x="1123.3697270471464" y="162" type="line"/>
      <point x="1011.3697270471464" y="109" type="line"/>
      <point x="898.3697270471464" y="41"/>
      <point x="622.3697270471464" y="-37"/>
      <point x="446.3697270471464" y="-16" type="qcurve" smooth="yes"/>
      <point x="178.3697270471464" y="16"/>
      <point x="-60.63027295285359" y="523"/>
    </contour>
  </outline>
</glyph>
<glyph name="H" format="2">
  <advance width="1230"/>
  <unicode hex="0048"/>
  <anchor x="607" y="0" name="bottom"/>
  <anchor x="820" y="1079" name="center"/>
  <anchor x="950" y="1500" name="top"/>
  <anchor x="80" y="1500" name="tonos"/>
  <outline>
    <contour>
      <point x="-216" y="0" type="line"/>
      <point x="-197" y="100" type="line"/>
      <point x="-10" y="120" type="line"/>
      <point x="129" y="806" type="line"/>
      <point x="228" y="1362" type="line"/>
      <point x="34" y="1385" type="line"/>
      <point x="46" y="1500" type="line"/>
      <point x="603" y="1500" type="line"/>
      <point x="581" y="1385" type="line"/>
      <point x="397" y="1362" type="line"/>
      <point x="285" y="790" type="line"/>
      <point x="159" y="120" type="line"/>
      <point x="350" y="100" type="line"/>
      <point x="341" y="0" type="line"/>
    </contour>
    <contour>
      <point x="195" y="738" type="line"/>
      <point x="216" y="855" type="line"/>
      <point x="659" y="851" type="line"/>
      <point x="1105" y="855" type="line"/>
      <point x="1084" y="738" type="line"/>
      <point x="640" y="742" type="line"/>
    </contour>
    <contour>
      <point x="674" y="0" type="line"/>
      <point x="693" y="100" type="line"/>
      <point x="880" y="120" type="line"/>
      <point x="1014" y="788" type="line"/>
      <point x="1118" y="1362" type="line"/>
      <point x="924" y="1385" type="line"/>
      <point x="936" y="1500" type="line"/>
      <point x="1492" y="1500" type="line"/>
      <point x="1470" y="1385" type="line"/>
      <point x="1287" y="1362" type="line"/>
      <point x="1170" y="771" type="line"/>
      <point x="1049" y="120" type="line"/>
      <point x="1239" y="100" type="line"/>
      <point x="1230" y="0" type="line"/>
    </contour>
  </outline>
</glyph>
<glyph name="I" format="2">
  <advance width="338"/>
  <unicode hex="0049"/>
  <anchor x="55.0" y="0" name="bottom"/>
  <anchor x="191" y="0" name="ogonek"/>
  <anchor x="338.0" y="1500" name="top"/>
  <anchor x="-84.0" y="1500" name="tonos"/>
  <anchor x="200" y="795" name="yu_dash"/>
  <outline>
    <contour>
      <point x="-221" y="0" type="line"/>
      <point x="-202" y="102" type="line"/>
      <point x="-7" y="127" type="line"/>
      <point x="116" y="754" type="line"/>
      <point x="230" y="1363" type="line"/>
      <point x="28" y="1386" type="line"/>
      <point x="41" y="1500" type="line"/>
      <point x="611" y="1500" type="line"/>
      <point x="588" y="1386" type="line"/>
      <point x="394" y="1363" type="line"/>
      <point x="276" y="754" type="line"/>
      <point x="157" y="128" type="line"/>
      <point x="358" y="102" type="line"/>
      <point x="339" y="0" type="line"/>
    </contour>
  </outline>
</glyph>
<glyph name="J" format="2">
  <advance width="336"/>
  <unicode hex="004A"/>
  <anchor x="174.0" y="-208" name="bottom"/>
  <anchor x="331.0" y="1500" name="top"/>
  <outline>
    <contour>
      <point x="-387" y="-225" type="qcurve"/>
      <point x="-353" y="-103" type="line"/>
      <point x="-333" y="-110"/>
      <point x="-258" y="-128"/>
      <point x="-200" y="-128" type="qcurve" smooth="yes"/>
      <point x="-122" y="-128"/>
      <point x="-32" y="-1"/>
      <point x="-10" y="112" type="qcurve" smooth="yes"/>
      <point x="116" y="754" type="line"/>
      <point x="230" y="1362" type="line"/>
      <point x="20" y="1386" type="line"/>
      <point x="33" y="1500" type="line"/>
      <point x="595" y="1500" type="line"/>
      <point x="582" y="1386" type="line"/>
      <point x="394" y="1362" type="line"/>
      <point x="276" y="754" type="line"/>
      <point x="168" y="204" type="line" smooth="yes"/>
      <point x="120" y="-38"/>
      <point x="-50" y="-260"/>
      <point x="-174" y="-260" type="qcurve" smooth="yes"/>
      <point x="-246" y="-260"/>
      <point x="-367" y="-237"/>
    </contour>
  </outline>
</glyph>
<glyph name="K" format="2">
  <advance width="1056"/>
  <unicode hex="004B"/>
  <anchor x="461.0" y="0" name="bottom"/>
  <anchor x="750.0" y="1500" name="top"/>
  <anchor x="1055" y="100" name="kai_tail"/>
  <outline>
    <contour>
      <point x="-212" y="0" type="line"/>
      <point x="-203" y="100" type="line"/>
      <point x="-7" y="125" type="line"/>
      <point x="116" y="754" type="line"/>
      <point x="230" y="1362" type="line"/>
      <point x="37" y="1386" type="line"/>
      <point x="50" y="1500" type="line"/>
      <point x="592" y="1500" type="line"/>
      <point x="579" y="1386" type="line"/>
      <point x="397" y="1362" type="line"/>
      <point x="276" y="754" type="line"/>
      <point x="165" y="124" type="line"/>
      <point x="349" y="100" type="line"/>
      <point x="340" y="0" type="line"/>
    </contour>
    <contour>
      <point x="157" y="540" type="line"/>
      <point x="185" y="693" type="line"/>
      <point x="879" y="1348" type="line"/>
      <point x="775" y="1386" type="line"/>
      <point x="788" y="1500" type="line"/>
      <point x="1208" y="1500" type="line"/>
      <point x="1195" y="1386" type="line"/>
      <point x="1034" y="1348" type="line"/>
    </contour>
    <contour>
      <point x="443" y="874" type="line"/>
      <point x="571" y="993" type="line"/>
      <point x="901" y="125" type="line"/>
      <point x="1055" y="100" type="line"/>
      <point x="1046" y="0" type="line"/>
      <point x="579" y="0" type="line"/>
      <point x="588" y="100" type="line"/>
      <point x="729" y="124" type="line"/>
    </contour>
  </outline>
</glyph>
<glyph name="L" format="2">
  <advance width="940"/>
  <unicode hex="004C"/>
  <anchor x="381.0" y="0" name="bottom"/>
  <anchor x="601.0" y="750.0" name="centerright"/>
  <anchor x="724.0" y="1500" name="top"/>
  <anchor x="650.0" y="1001" name="topright"/>
  <anchor x="243.0" y="750.0" name="center"/>
  <outline>
    <contour>
      <point x="-213" y="0" type="line"/>
      <point x="-203" y="100" type="line"/>
      <point x="-7" y="122" type="line"/>
      <point x="116" y="754" type="line"/>
      <point x="230" y="1353" type="line"/>
      <point x="29" y="1387" type="line"/>
      <point x="41" y="1500" type="line"/>
      <point x="613" y="1500" type="line"/>
      <point x="601" y="1387" type="line"/>
      <point x="394" y="1353" type="line"/>
      <point x="276" y="754" type="line"/>
      <point x="157" y="135" type="line"/>
      <point x="188" y="108" type="line"/>
      <point x="644" y="108" type="line"/>
      <point x="803" y="341" type="line"/>
      <point x="914" y="341" type="line"/>
      <point x="765" y="0" type="line"/>
    </contour>
  </outline>
</glyph>
<glyph name="M" format="2">
  <advance width="1918"/>
  <unicode hex="004D"/>
  <anchor x="768.0" y="0" name="bottom"/>
  <anchor x="1048.0" y="1500" name="top"/>
  <outline>
    <contour>
      <point x="-71" y="0" type="line"/>
      <point x="-62" y="100" type="line"/>
      <point x="129" y="115" type="line"/>
      <point x="252" y="754" type="line"/>
      <point x="366" y="1372" type="line"/>
      <point x="183" y="1386" type="line"/>
      <point x="196" y="1500" type="line"/>
      <point x="616" y="1500" type="line"/>
      <point x="735" y="786" type="line"/>
      <point x="815" y="327" type="line"/>
      <point x="831" y="213" type="line"/>
      <point x="841" y="213" type="line"/>
      <point x="900" y="327" type="line"/>
      <point x="1172" y="820" type="line"/>
      <point x="1548" y="1500" type="line"/>
      <point x="1969" y="1500" type="line"/>
      <point x="1948" y="1386" type="line"/>
      <point x="1761" y="1372" type="line"/>
      <point x="1643" y="754" type="line"/>
      <point x="1524" y="115" type="line"/>
      <point x="1716" y="100" type="line"/>
      <point x="1707" y="0" type="line"/>
      <point x="1148" y="0" type="line"/>
      <point x="1157" y="100" type="line"/>
      <point x="1360" y="115" type="line"/>
      <point x="1483" y="754" type="line"/>
      <point x="1580" y="1244" type="line"/>
      <point x="1606" y="1363" type="line"/>
      <point x="1597" y="1365" type="line"/>
      <point x="1539" y="1258" type="line"/>
      <point x="1257" y="758" type="line"/>
      <point x="825" y="-8" type="line"/>
      <point x="714" y="-8" type="line"/>
      <point x="588" y="750" type="line"/>
      <point x="499" y="1249" type="line"/>
      <point x="485" y="1357" type="line"/>
      <point x="474" y="1355" type="line"/>
      <point x="456" y="1235" type="line"/>
      <point x="360" y="754" type="line"/>
      <point x="241" y="115" type="line"/>
      <point x="437" y="100" type="line"/>
      <point x="418" y="0" type="line"/>
    </contour>
  </outline>
</glyph>
<glyph name="N" format="2">
  <advance width="1432"/>
  <unicode hex="004E"/>
  <anchor x="640" y="0" name="bottom"/>
  <anchor x="884" y="1500" name="top"/>
  <outline>
    <contour>
      <point x="-76" y="0" type="line"/>
      <point x="-67" y="100" type="line"/>
      <point x="129" y="125" type="line"/>
      <point x="252" y="754" type="line"/>
      <point x="366" y="1362" type="line"/>
      <point x="183" y="1386" type="line"/>
      <point x="196" y="1500" type="line"/>
      <point x="593" y="1500" type="line"/>
      <point x="819" y="820" type="line"/>
      <point x="958" y="418" type="line"/>
      <point x="990" y="317" type="line"/>
      <point x="1001" y="319" type="line"/>
      <point x="1024" y="440" type="line"/>
      <point x="1087" y="754" type="line"/>
      <point x="1202" y="1362" type="line"/>
      <point x="1001" y="1386" type="line"/>
      <point x="1017" y="1500" type="line"/>
      <point x="1521" y="1500" type="line"/>
      <point x="1505" y="1386" type="line"/>
      <point x="1311" y="1362" type="line"/>
      <point x="1193" y="754" type="line"/>
      <point x="1041" y="0" type="line"/>
      <point x="930" y="0" type="line"/>
      <point x="679" y="748" type="line"/>
      <point x="507" y="1220" type="line"/>
      <point x="471" y="1324" type="line"/>
      <point x="461" y="1321" type="line"/>
      <point x="442" y="1199" type="line"/>
      <point x="357" y="754" type="line"/>
      <point x="238" y="125" type="line"/>
      <point x="429" y="100" type="line"/>
      <point x="420" y="0" type="line"/>
    </contour>
  </outline>
</glyph>
<glyph name="O" format="2">
  <advance width="1318"/>
  <unicode hex="004F"/>
  <anchor x="532" y="0" name="bottom"/>
  <anchor x="685" y="756.0" name="center"/>
  <anchor x="764" y="0" name="ogonek"/>
  <anchor x="826" y="1500" name="top"/>
  <anchor x="964" y="1500" name="topright"/>
  <anchor x="160" y="1500" name="tonos"/>
  <anchor x="94" y="795" name="_yu_dash"/>
  <outline>
    <contour>
      <point x="23" y="868" type="qcurve" smooth="yes"/>
      <point x="108" y="1194"/>
      <point x="609" y="1562"/>
      <point x="882" y="1519" type="qcurve" smooth="yes"/>
      <point x="1173" y="1473"/>
      <point x="1431" y="1000"/>
      <point x="1351" y="656" type="qcurve" smooth="yes"/>
      <point x="1264" y="283"/>
      <point x="767" y="-56"/>
      <point x="486" y="-17" type="qcurve" smooth="yes"/>
      <point x="200" y="23"/>
      <point x="-65" y="530"/>
    </contour>
    <contour>
      <point x="204" y="849" type="qcurve" smooth="yes"/>
      <point x="131" y="559"/>
      <point x="300" y="149"/>
      <point x="516" y="117" type="qcurve" smooth="yes"/>
      <point x="758" y="81"/>
      <point x="1091" y="352"/>
      <point x="1164" y="666" type="qcurve" smooth="yes"/>
      <point x="1231" y="955"/>
      <point x="1068" y="1351"/>
      <point x="850" y="1384" type="qcurve" smooth="yes"/>
      <point x="627" y="1418"/>
      <point x="281" y="1158"/>
    </contour>
  </outline>
</glyph>
<glyph name="P" format="2">
  <advance width="909"/>
  <unicode hex="0050"/>
  <anchor x="492.0" y="0" name="bottom"/>
  <anchor x="492.0" y="1500" name="top"/>
  <outline>
    <contour>
      <point x="-209" y="0" type="line"/>
      <point x="-200" y="100" type="line"/>
      <point x="-3" y="127" type="line"/>
      <point x="114" y="754" type="line"/>
      <point x="224" y="1362" type="line"/>
      <point x="41" y="1386" type="line"/>
      <point x="54" y="1500" type="line"/>
      <point x="626" y="1500" type="line" smooth="yes"/>
      <point x="843" y="1500"/>
      <point x="1046" y="1263"/>
      <point x="1009" y="1051" type="qcurve" smooth="yes"/>
      <point x="971" y="831"/>
      <point x="665" y="599"/>
      <point x="461" y="599" type="qcurve" smooth="yes"/>
      <point x="362" y="599"/>
      <point x="214" y="620"/>
      <point x="175" y="628" type="qcurve"/>
      <point x="195" y="733" type="line"/>
      <point x="252" y="716"/>
      <point x="354" y="707"/>
      <point x="447" y="707" type="qcurve" smooth="yes"/>
      <point x="602" y="707"/>
      <point x="809" y="901"/>
      <point x="835" y="1072" type="qcurve" smooth="yes"/>
      <point x="859" y="1228"/>
      <point x="741" y="1382"/>
      <point x="596" y="1382" type="qcurve" smooth="yes"/>
      <point x="411" y="1382" type="line"/>
      <point x="385" y="1360" type="line"/>
      <point x="277" y="764" type="line"/>
      <point x="160" y="122" type="line"/>
      <point x="360" y="100" type="line"/>
      <point x="351" y="0" type="line"/>
    </contour>
  </outline>
</glyph>
<glyph name="Q" format="2">
  <advance width="1317"/>
  <unicode hex="0051"/>
  <anchor x="751" y="0" name="bottom"/>
  <anchor x="751" y="1500" name="top"/>
  <outline>
    <contour>
      <point x="22" y="867" type="qcurve" smooth="yes"/>
      <point x="107" y="1193"/>
      <point x="608" y="1562"/>
      <point x="881" y="1519" type="qcurve" smooth="yes"/>
      <point x="1172" y="1473"/>
      <point x="1430" y="996"/>
      <point x="1350" y="656" type="qcurve" smooth="yes"/>
      <point x="1264" y="290"/>
      <point x="750" y="-35"/>
      <point x="487" y="5" type="qcurve" smooth="yes"/>
      <point x="218" y="46"/>
      <point x="-66" y="529"/>
    </contour>
    <contour>
      <point x="203" y="849" type="qcurve" smooth="yes"/>
      <point x="130" y="559"/>
      <point x="299" y="149"/>
      <point x="515" y="117" type="qcurve" smooth="yes"/>
      <point x="757" y="81"/>
      <point x="1089" y="353"/>
      <point x="1163" y="666" type="qcurve" smooth="yes"/>
      <point x="1231" y="953"/>
      <point x="1067" y="1351"/>
      <point x="849" y="1384" type="qcurve" smooth="yes"/>
      <point x="626" y="1418"/>
      <point x="280" y="1158"/>
    </contour>
    <contour>
      <point x="301" y="-3" type="qcurve"/>
      <point x="1010" y="-315" type="line" smooth="yes"/>
      <point x="1072" y="-342"/>
      <point x="1194" y="-250"/>
      <point x="1228" y="-199" type="qcurve"/>
      <point x="1301" y="-262" type="line"/>
      <point x="1254" y="-359"/>
      <point x="1097" y="-480"/>
      <point x="980" y="-463" type="qcurve"/>
      <point x="265" y="-142" type="line"/>
      <point x="213" y="-134"/>
      <point x="106" y="-162"/>
      <point x="47" y="-205" type="qcurve"/>
      <point x="-4" y="-134" type="line"/>
      <point x="58" y="-57"/>
      <point x="215" y="5"/>
    </contour>
    <contour>
      <point x="239" y="-53" type="line"/>
      <point x="345" y="75"/>
      <point x="463" y="207"/>
      <point x="555" y="312" type="qcurve" smooth="yes"/>
      <point x="562" y="320"/>
      <point x="573" y="332"/>
      <point x="585" y="344" type="qcurve"/>
      <point x="610" y="334"/>
      <point x="658" y="298"/>
      <point x="670" y="285" type="qcurve"/>
      <point x="661" y="272"/>
      <point x="648" y="256"/>
      <point x="639" y="246" type="qcurve" smooth="yes"/>
      <point x="548" y="153"/>
      <point x="425" y="28"/>
      <point x="320" y="-88" type="qcurve"/>
    </contour>
  </outline>
</glyph>
<glyph name="R" format="2">
  <advance width="976"/>
  <unicode hex="0052"/>
  <anchor x="437.0" y="0" name="bottom"/>
  <anchor x="614.0" y="1500" name="top"/>
  <outline>
    <contour>
      <point x="-222" y="0" type="line"/>
      <point x="-203" y="100" type="line"/>
      <point x="-7" y="126" type="line"/>
      <point x="116" y="754" type="line"/>
      <point x="230" y="1362" type="line"/>
      <point x="47" y="1386" type="line"/>
      <point x="60" y="1500" type="line"/>
      <point x="618" y="1500" type="line" smooth="yes"/>
      <point x="811" y="1500"/>
      <point x="993" y="1288"/>
      <point x="960" y="1122" type="qcurve" smooth="yes"/>
      <point x="926" y="953"/>
      <point x="640" y="746"/>
      <point x="503" y="746" type="qcurve" smooth="yes"/>
      <point x="442" y="746"/>
      <point x="246" y="745"/>
      <point x="195" y="750" type="qcurve"/>
      <point x="213" y="845" type="line"/>
      <point x="317" y="845" type="line"/>
      <point x="455" y="845" type="line" smooth="yes"/>
      <point x="614" y="845"/>
      <point x="750" y="977"/>
      <point x="776" y="1116" type="qcurve" smooth="yes"/>
      <point x="798" y="1232"/>
      <point x="704" y="1382"/>
      <point x="580" y="1382" type="qcurve" smooth="yes"/>
      <point x="428" y="1382" type="line"/>
      <point x="398" y="1364" type="line"/>
      <point x="276" y="754" type="line"/>
      <point x="157" y="126" type="line"/>
      <point x="346" y="100" type="line"/>
      <point x="327" y="0" type="line"/>
    </contour>
    <contour>
      <point x="480" y="792" type="line"/>
      <point x="631" y="820" type="line"/>
      <point x="644" y="718" type="line" smooth="yes"/>
      <point x="669" y="524"/>
      <point x="810" y="130"/>
      <point x="997" y="99" type="qcurve"/>
      <point x="968" y="0" type="line"/>
      <point x="892" y="0" type="line" smooth="yes"/>
      <point x="692" y="0"/>
      <point x="520" y="447"/>
      <point x="493" y="681" type="qcurve" smooth="yes"/>
    </contour>
  </outline>
</glyph>
<glyph name="S" format="2">
  <advance width="988"/>
  <unicode hex="0053"/>
  <anchor x="389.0" y="0" name="bottom"/>
  <anchor x="669.0" y="1500" name="top"/>
  <outline>
    <contour>
      <point x="-64" y="25" type="line"/>
      <point x="1" y="434" type="line"/>
      <point x="105" y="434" type="line"/>
      <point x="105" y="324" type="line" smooth="yes"/>
      <point x="105" y="227"/>
      <point x="285" y="105"/>
      <point x="438" y="105" type="qcurve" smooth="yes"/>
      <point x="577" y="105"/>
      <point x="754" y="258"/>
      <point x="754" y="385" type="qcurve" smooth="yes"/>
      <point x="754" y="491"/>
      <point x="589" y="648"/>
      <point x="465" y="736" type="qcurve" smooth="yes"/>
      <point x="348" y="819"/>
      <point x="172" y="1013"/>
      <point x="172" y="1161" type="qcurve" smooth="yes"/>
      <point x="172" y="1314"/>
      <point x="417" y="1520"/>
      <point x="577" y="1520" type="qcurve" smooth="yes"/>
      <point x="689" y="1520"/>
      <point x="840" y="1464"/>
      <point x="888" y="1431" type="qcurve"/>
      <point x="937" y="1514" type="line"/>
      <point x="1027" y="1496" type="line"/>
      <point x="972" y="1087" type="line"/>
      <point x="857" y="1087" type="line"/>
      <point x="857" y="1256" type="line"/>
      <point x="857" y="1301"/>
      <point x="706" y="1399"/>
      <point x="605" y="1399" type="qcurve" smooth="yes"/>
      <point x="492" y="1399"/>
      <point x="342" y="1281"/>
      <point x="342" y="1190" type="qcurve" smooth="yes"/>
      <point x="342" y="1099"/>
      <point x="467" y="972"/>
      <point x="612" y="866" type="qcurve" smooth="yes"/>
      <point x="752" y="763"/>
      <point x="915" y="560"/>
      <point x="914" y="411" type="qcurve" smooth="yes"/>
      <point x="913" y="226"/>
      <point x="654" y="-22"/>
      <point x="467" y="-22" type="qcurve" smooth="yes"/>
      <point x="342" y="-22"/>
      <point x="150" y="51"/>
      <point x="85" y="102" type="qcurve"/>
      <point x="26" y="7" type="line"/>
    </contour>
  </outline>
</glyph>
<glyph name="T" format="2">
  <advance width="1129"/>
  <unicode hex="0054"/>
  <anchor x="441.0" y="0" name="bottom"/>
  <anchor x="574.0" y="750.0" name="center"/>
  <anchor x="722.0" y="1500" name="top"/>
  <anchor x="745.0" y="100" name="cy_descender"/>
  <outline>
    <contour>
      <point x="91" y="1099" type="line"/>
      <point x="174" y="1500" type="line"/>
      <point x="1271" y="1500" type="line"/>
      <point x="1188" y="1099" type="line"/>
      <point x="1088" y="1099" type="line"/>
      <point x="1116" y="1382" type="line"/>
      <point x="798" y="1382" type="line"/>
      <point x="784" y="1362" type="line"/>
      <point x="665" y="754" type="line"/>
      <point x="543" y="125" type="line"/>
      <point x="735" y="100" type="line"/>
      <point x="727" y="0" type="line"/>
      <point x="168" y="0" type="line"/>
      <point x="176" y="100" type="line"/>
      <point x="376" y="125" type="line"/>
      <point x="505" y="754" type="line"/>
      <point x="621" y="1362" type="line"/>
      <point x="617" y="1382" type="line"/>
      <point x="283" y="1382" type="line"/>
      <point x="191" y="1099" type="line"/>
    </contour>
  </outline>
</glyph>
<glyph name="U" format="2">
  <advance width="1161"/>
  <unicode hex="0055"/>
  <anchor x="442.0" y="0" name="bottom"/>
  <anchor x="664.0" y="0" name="ogonek"/>
  <anchor x="762.0" y="1500" name="top"/>
  <anchor x="1415.0" y="1500" name="topright"/>
  <outline>
    <contour>
      <point x="33" y="1386" type="line"/>
      <point x="47" y="1500" type="line"/>
      <point x="588" y="1500" type="line"/>
      <point x="574" y="1386" type="line"/>
      <point x="399" y="1362" type="line"/>
      <point x="281" y="794" type="line" smooth="yes"/>
      <point x="262" y="702"/>
      <point x="226" y="454"/>
      <point x="226" y="374" type="qcurve" smooth="yes"/>
      <point x="226" y="268"/>
      <point x="374" y="104"/>
      <point x="502" y="104" type="qcurve" smooth="yes"/>
      <point x="669" y="104"/>
      <point x="879" y="277"/>
      <point x="922" y="494" type="qcurve" smooth="yes"/>
      <point x="981" y="794" type="line"/>
      <point x="1079" y="1362" type="line"/>
      <point x="887" y="1386" type="line"/>
      <point x="901" y="1500" type="line"/>
      <point x="1415" y="1500" type="line"/>
      <point x="1401" y="1386" type="line"/>
      <point x="1216" y="1362" type="line"/>
      <point x="1105" y="794" type="line"/>
      <point x="1050" y="493" type="line" smooth="yes"/>
      <point x="998" y="209"/>
      <point x="710" y="-22"/>
      <point x="483" y="-22" type="qcurve" smooth="yes"/>
      <point x="284" y="-22"/>
      <point x="48" y="178"/>
      <point x="51" y="364" type="qcurve" smooth="yes"/>
      <point x="52" y="444"/>
      <point x="85" y="615"/>
      <point x="119" y="794" type="qcurve" smooth="yes"/>
      <point x="226" y="1362" type="line"/>
    </contour>
  </outline>
</glyph>
<glyph name="V" format="2">
  <advance width="1071"/>
  <unicode hex="0056"/>
  <anchor x="333.0" y="0" name="bottom"/>
  <anchor x="703.0" y="1500" name="top"/>
  <outline>
    <contour>
      <point x="32" y="1386" type="line"/>
      <point x="53" y="1500" type="line"/>
      <point x="523" y="1500" type="line"/>
      <point x="502" y="1386" type="line"/>
      <point x="342" y="1365" type="line"/>
      <point x="373" y="801" type="line"/>
      <point x="398" y="390" type="line"/>
      <point x="402" y="261" type="line"/>
      <point x="420" y="261" type="line"/>
      <point x="487" y="390" type="line"/>
      <point x="719" y="805" type="line"/>
      <point x="1031" y="1372" type="line"/>
      <point x="868" y="1386" type="line"/>
      <point x="881" y="1500" type="line"/>
      <point x="1340" y="1500" type="line"/>
      <point x="1327" y="1386" type="line"/>
      <point x="1159" y="1367" type="line"/>
      <point x="815" y="754" type="line"/>
      <point x="388" y="-8" type="line"/>
      <point x="277" y="-8" type="line"/>
      <point x="216" y="740" type="line"/>
      <point x="175" y="1367" type="line"/>
    </contour>
  </outline>
</glyph>
<glyph name="W" format="2">
  <advance width="1686"/>
  <unicode hex="0057"/>
  <anchor x="661.0" y="0" name="bottom"/>
  <anchor x="951.0" y="1500" name="top"/>
  <outline>
    <contour>
      <point x="30" y="1386" type="line"/>
      <point x="54" y="1500" type="line"/>
      <point x="543" y="1500" type="line"/>
      <point x="519" y="1386" type="line"/>
      <point x="361" y="1366" type="line"/>
      <point x="371" y="803" type="line"/>
      <point x="380" y="400" type="line"/>
      <point x="380" y="271" type="line"/>
      <point x="397" y="271" type="line"/>
      <point x="467" y="400" type="line"/>
      <point x="665" y="737" type="line"/>
      <point x="883" y="1121" type="line"/>
      <point x="874" y="1373" type="line"/>
      <point x="732" y="1394" type="line"/>
      <point x="753" y="1500" type="line"/>
      <point x="1218" y="1500" type="line"/>
      <point x="1197" y="1386" type="line"/>
      <point x="1044" y="1373" type="line"/>
      <point x="1050" y="800" type="line"/>
      <point x="1064" y="400" type="line"/>
      <point x="1064" y="271" type="line"/>
      <point x="1081" y="271" type="line"/>
      <point x="1147" y="400" type="line"/>
      <point x="1365" y="803" type="line"/>
      <point x="1648" y="1372" type="line"/>
      <point x="1455" y="1386" type="line"/>
      <point x="1468" y="1500" type="line"/>
      <point x="1955" y="1500" type="line"/>
      <point x="1942" y="1385" type="line"/>
      <point x="1784" y="1367" type="line"/>
      <point x="1459" y="760" type="line"/>
      <point x="1033" y="-8" type="line"/>
      <point x="922" y="-8" type="line"/>
      <point x="893" y="805" type="line"/>
      <point x="891" y="934" type="line"/>
      <point x="881" y="934" type="line"/>
      <point x="814" y="805" type="line"/>
      <point x="347" y="-8" type="line"/>
      <point x="243" y="-8" type="line"/>
      <point x="219" y="740" type="line"/>
      <point x="193" y="1366" type="line"/>
    </contour>
  </outline>
</glyph>
<glyph name="X" format="2">
  <advance width="1072"/>
  <unicode hex="0058"/>
  <anchor x="403.0" y="0" name="bottom"/>
  <anchor x="673.0" y="1500" name="top"/>
  <anchor x="1075.0" y="100" name="cy_descender"/>
  <outline>
    <contour>
      <point x="-210" y="0" type="line"/>
      <point x="-201" y="100" type="line"/>
      <point x="-42" y="125" type="line"/>
      <point x="463" y="764" type="line"/>
      <point x="212" y="1365" type="line"/>
      <point x="64" y="1386" type="line"/>
      <point x="77" y="1500" type="line"/>
      <point x="562" y="1500" type="line"/>
      <point x="549" y="1386" type="line"/>
      <point x="396" y="1363" type="line"/>
      <point x="531" y="1027" type="line"/>
      <point x="577" y="913" type="line"/>
      <point x="588" y="913" type="line"/>
      <point x="674" y="1027" type="line"/>
      <point x="931" y="1370" type="line"/>
      <point x="775" y="1386" type="line"/>
      <point x="788" y="1500" type="line"/>
      <point x="1248" y="1500" type="line"/>
      <point x="1235" y="1386" type="line"/>
      <point x="1067" y="1365" type="line"/>
      <point x="620" y="808" type="line"/>
      <point x="910" y="125" type="line"/>
      <point x="1065" y="100" type="line"/>
      <point x="1056" y="0" type="line"/>
      <point x="562" y="0" type="line"/>
      <point x="571" y="100" type="line"/>
      <point x="726" y="125" type="line"/>
      <point x="553" y="544" type="line"/>
      <point x="506" y="658" type="line"/>
      <point x="496" y="658" type="line"/>
      <point x="411" y="544" type="line"/>
      <point x="94" y="120" type="line"/>
      <point x="249" y="100" type="line"/>
      <point x="240" y="0" type="line"/>
    </contour>
  </outline>
</glyph>
<glyph name="Y" format="2">
  <advance width="1012"/>
  <unicode hex="0059"/>
  <anchor x="393.0" y="0" name="bottom"/>
  <anchor x="681.0" y="1500" name="top"/>
  <anchor x="-63.0" y="1500" name="tonos"/>
  <outline>
    <contour>
      <point x="121" y="0" type="line"/>
      <point x="130" y="100" type="line"/>
      <point x="335" y="125" type="line"/>
      <point x="437" y="647" type="line"/>
      <point x="330" y="976" type="line"/>
      <point x="188" y="1370" type="line"/>
      <point x="46" y="1386" type="line"/>
      <point x="59" y="1500" type="line"/>
      <point x="537" y="1500" type="line"/>
      <point x="524" y="1386" type="line"/>
      <point x="371" y="1361" type="line"/>
      <point x="466" y="1055" type="line"/>
      <point x="559" y="783" type="line"/>
      <point x="569" y="783" type="line"/>
      <point x="774" y="1077" type="line"/>
      <point x="972" y="1368" type="line"/>
      <point x="798" y="1386" type="line"/>
      <point x="811" y="1500" type="line"/>
      <point x="1273" y="1500" type="line"/>
      <point x="1260" y="1386" type="line"/>
      <point x="1112" y="1369" type="line"/>
      <point x="853" y="1013" type="line"/>
      <point x="597" y="652" type="line"/>
      <point x="498" y="125" type="line"/>
      <point x="692" y="100" type="line"/>
      <point x="683" y="0" type="line"/>
    </contour>
  </outline>
</glyph>
<glyph name="b" format="2">
  <advance width="967"/>
  <unicode hex="0062"/>
  <anchor x="540" y="0" name="bottom"/>
  <anchor x="540" y="1533" name="top"/>
  <outline>
    <contour>
      <point x="17" y="241" type="qcurve" smooth="yes"/>
      <point x="91" y="633" type="line"/>
      <point x="238" y="1410" type="line"/>
      <point x="104" y="1502" type="line"/>
      <point x="132" y="1574" type="line"/>
      <point x="343" y="1608" type="line"/>
      <point x="430" y="1538" type="line"/>
      <point x="248" y="601" type="line"/>
      <point x="176" y="227" type="line" smooth="yes"/>
      <point x="164" y="165"/>
      <point x="198" y="116"/>
      <point x="245" y="116" type="qcurve" smooth="yes"/>
      <point x="465" y="116"/>
      <point x="745" y="459"/>
      <point x="745" y="684" type="qcurve" smooth="yes"/>
      <point x="745" y="788"/>
      <point x="679" y="855"/>
      <point x="606" y="855" type="qcurve" smooth="yes"/>
      <point x="504" y="855"/>
      <point x="267" y="693"/>
      <point x="160" y="571" type="qcurve"/>
      <point x="186" y="712" type="line"/>
      <point x="268" y="818"/>
      <point x="570" y="1003"/>
      <point x="688" y="1003" type="qcurve" smooth="yes"/>
      <point x="793" y="1003"/>
      <point x="917" y="874"/>
      <point x="917" y="709" type="qcurve" smooth="yes"/>
      <point x="917" y="406"/>
      <point x="487" y="-13"/>
      <point x="207" y="-13" type="qcurve" smooth="yes"/>
      <point x="87" y="-13"/>
      <point x="-3" y="137"/>
    </contour>
  </outline>
</glyph>
<glyph name="c" format="2">
  <advance width="855"/>
  <unicode hex="0063"/>
  <anchor x="317" y="0" name="bottom"/>
  <anchor x="574" y="1000" name="top"/>
  <outline>
    <contour>
      <point x="-14" y="503" type="qcurve" smooth="yes"/>
      <point x="44" y="740"/>
      <point x="407" y="1017"/>
      <point x="591" y="1017" type="qcurve" smooth="yes"/>
      <point x="687" y="1017"/>
      <point x="820" y="924"/>
      <point x="820" y="836" type="qcurve" smooth="yes"/>
      <point x="820" y="759"/>
      <point x="743" y="639"/>
      <point x="677" y="626" type="qcurve"/>
      <point x="654" y="653" type="line"/>
      <point x="654" y="826" type="line" smooth="yes"/>
      <point x="654" y="851"/>
      <point x="597" y="888"/>
      <point x="536" y="888" type="qcurve" smooth="yes"/>
      <point x="402" y="888"/>
      <point x="188" y="688"/>
      <point x="144" y="497" type="qcurve" smooth="yes"/>
      <point x="106" y="334"/>
      <point x="208" y="119"/>
      <point x="359" y="119" type="qcurve" smooth="yes"/>
      <point x="474" y="119"/>
      <point x="655" y="227"/>
      <point x="717" y="316" type="qcurve"/>
      <point x="775" y="252" type="line"/>
      <point x="775" y="223" type="line"/>
      <point x="711" y="137"/>
      <point x="454" y="-17"/>
      <point x="302" y="-17" type="qcurve" smooth="yes"/>
      <point x="106" y="-17"/>
      <point x="-70" y="274"/>
    </contour>
  </outline>
</glyph>
<glyph name="d" format="2">
  <advance width="917"/>
  <unicode hex="0064"/>
  <anchor x="584" y="0" name="bottom"/>
  <anchor x="856" y="1202.0" name="center"/>
  <anchor x="684" y="1534" name="top"/>
  <anchor x="1056" y="1000" name="topright"/>
  <outline>
    <contour>
      <point x="-26" y="248" type="qcurve" smooth="yes"/>
      <point x="-26" y="548"/>
      <point x="419" y="991"/>
      <point x="702" y="1000" type="qcurve" smooth="yes"/>
      <point x="734" y="1000" type="line"/>
      <point x="809" y="1408" type="line"/>
      <point x="675" y="1500" type="line"/>
      <point x="703" y="1572" type="line"/>
      <point x="914" y="1606" type="line"/>
      <point x="1001" y="1536" type="line"/>
      <point x="792" y="469" type="line"/>
      <point x="743" y="133" type="line"/>
      <point x="828" y="133" type="line"/>
      <point x="828" y="44" type="line"/>
      <point x="601" y="-16" type="line"/>
      <point x="564" y="65" type="line"/>
      <point x="587" y="192" type="line"/>
      <point x="517" y="98"/>
      <point x="266" y="-10"/>
      <point x="195" y="-10" type="qcurve" smooth="yes"/>
      <point x="78" y="-10"/>
      <point x="-26" y="139"/>
    </contour>
    <contour>
      <point x="143" y="300" type="qcurve" smooth="yes"/>
      <point x="143" y="225"/>
      <point x="203" y="127"/>
      <point x="272" y="127" type="qcurve" smooth="yes"/>
      <point x="390" y="127"/>
      <point x="614" y="313"/>
      <point x="647" y="491" type="qcurve" smooth="yes"/>
      <point x="703" y="784" type="line"/>
      <point x="700" y="824"/>
      <point x="634" y="850"/>
      <point x="593" y="850" type="qcurve" smooth="yes"/>
      <point x="394" y="850"/>
      <point x="143" y="519"/>
    </contour>
  </outline>
</glyph>
<glyph name="e" format="2">
  <advance width="893"/>
  <unicode hex="0065"/>
  <anchor x="305.62093862815885" y="0" name="bottom"/>
  <anchor x="461.6209386281588" y="0" name="ogonek"/>
  <anchor x="567.6209386281588" y="1000" name="top"/>
  <outline>
    <contour>
      <point x="-21.37906137184116" y="485" type="qcurve" smooth="yes"/>
      <point x="30.620938628158846" y="728"/>
      <point x="383.62093862815885" y="1017"/>
      <point x="560.6209386281588" y="1017" type="qcurve" smooth="yes"/>
      <point x="703.6209386281588" y="1017"/>
      <point x="827.6209386281588" y="907"/>
      <point x="837.6209386281588" y="834" type="qcurve" smooth="yes"/>
      <point x="843.6209386281588" y="789"/>
      <point x="836.6209386281588" y="703"/>
      <point x="825.6209386281588" y="654" type="qcurve"/>
      <point x="855.6209386281588" y="645" type="line"/>
      <point x="820.6209386281588" y="544" type="line"/>
      <point x="745.6209386281588" y="546"/>
      <point x="618.6209386281588" y="546"/>
      <point x="551.6209386281588" y="546" type="qcurve" smooth="yes"/>
      <point x="73.62093862815885" y="544" type="line"/>
      <point x="110.62093862815885" y="638" type="line"/>
      <point x="638.6209386281588" y="646" type="line"/>
      <point x="650.6209386281588" y="677"/>
      <point x="667.6209386281588" y="767"/>
      <point x="661.6209386281588" y="801" type="qcurve" smooth="yes"/>
      <point x="654.6209386281588" y="840"/>
      <point x="594.6209386281588" y="888"/>
      <point x="537.6209386281588" y="888" type="qcurve" smooth="yes"/>
      <point x="406.62093862815885" y="888"/>
      <point x="181.62093862815885" y="692"/>
      <point x="144.62093862815885" y="511" type="qcurve" smooth="yes"/>
      <point x="108.62093862815885" y="334"/>
      <point x="215.62093862815885" y="125"/>
      <point x="352.62093862815885" y="120" type="qcurve" smooth="yes"/>
      <point x="477.6209386281588" y="115"/>
      <point x="653.6209386281588" y="211"/>
      <point x="732.6209386281588" y="313" type="qcurve"/>
      <point x="772.6209386281588" y="258" type="line"/>
      <point x="793.6209386281588" y="230" type="line"/>
      <point x="717.6209386281588" y="125"/>
      <point x="460.6209386281588" y="-24"/>
      <point x="292.62093862815885" y="-17" type="qcurve" smooth="yes"/>
      <point x="120.62093862815885" y="-10"/>
      <point x="-66.37906137184116" y="274"/>
    </contour>
  </outline>
</glyph>
<glyph name="f" format="2">
  <advance width="481"/>
  <unicode hex="0066"/>
  <anchor x="167.0" y="0" name="bottom"/>
  <anchor x="504.0" y="1536" name="top"/>
  <outline>
    <contour>
      <point x="-401" y="-405" type="line" smooth="yes"/>
      <point x="-391" y="-305" type="line"/>
      <point x="-257" y="-303" type="line" smooth="yes"/>
      <point x="-139" y="-301"/>
      <point x="-34" y="-155"/>
      <point x="20" y="147" type="qcurve" smooth="yes"/>
      <point x="155" y="905" type="line"/>
      <point x="167" y="942" type="line"/>
      <point x="234" y="1269" type="line" smooth="yes"/>
      <point x="270" y="1445"/>
      <point x="428" y="1582"/>
      <point x="538" y="1582" type="qcurve" smooth="yes"/>
      <point x="623" y="1582"/>
      <point x="721" y="1511"/>
      <point x="721" y="1461" type="qcurve" smooth="yes"/>
      <point x="721" y="1420"/>
      <point x="667" y="1369"/>
      <point x="640" y="1369" type="qcurve" smooth="yes"/>
      <point x="624" y="1369"/>
      <point x="618" y="1378"/>
      <point x="618" y="1396" type="qcurve" smooth="yes"/>
      <point x="618" y="1423"/>
      <point x="575" y="1452"/>
      <point x="541" y="1452" type="qcurve" smooth="yes"/>
      <point x="480" y="1452"/>
      <point x="386" y="1363"/>
      <point x="371" y="1263" type="qcurve" smooth="yes"/>
      <point x="321" y="938" type="line"/>
      <point x="320" y="913" type="line"/>
      <point x="189" y="214" type="line" smooth="yes"/>
      <point x="109" y="-210"/>
      <point x="-70" y="-447"/>
      <point x="-216" y="-447" type="qcurve"/>
    </contour>
    <contour>
      <point x="-24" y="864" type="line"/>
      <point x="-30" y="938" type="line"/>
      <point x="179" y="980" type="line"/>
      <point x="539" y="980" type="line"/>
      <point x="529" y="858" type="line"/>
      <point x="266" y="865" type="line"/>
      <point x="179" y="847" type="line"/>
    </contour>
  </outline>
</glyph>
<glyph name="g" format="2">
  <advance width="913"/>
  <unicode hex="0067"/>
  <anchor x="294.0" y="-416" name="bottom"/>
  <anchor x="572.0" y="1000" name="top"/>
  <outline>
    <contour>
      <point x="-36" y="264" type="qcurve" smooth="yes"/>
      <point x="-36" y="564"/>
      <point x="392" y="985"/>
      <point x="602" y="985" type="qcurve" smooth="yes"/>
      <point x="630" y="985"/>
      <point x="679" y="976"/>
      <point x="701" y="965" type="qcurve"/>
      <point x="774" y="1020" type="line"/>
      <point x="820" y="1020" type="line"/>
      <point x="879" y="863" type="line"/>
      <point x="822" y="588" type="line" smooth="yes"/>
      <point x="787" y="421"/>
      <point x="725" y="123"/>
      <point x="705" y="48" type="qcurve" smooth="yes"/>
      <point x="620" y="-269"/>
      <point x="294" y="-464"/>
      <point x="120" y="-464" type="qcurve"/>
      <point x="-48" y="-424" type="line"/>
      <point x="-46" y="-348" type="line"/>
      <point x="138" y="-337" type="line" smooth="yes"/>
      <point x="274" y="-329"/>
      <point x="503" y="-128"/>
      <point x="551" y="83" type="qcurve" smooth="yes"/>
      <point x="586" y="236" type="line"/>
      <point x="459" y="102"/>
      <point x="252" y="16"/>
      <point x="181" y="16" type="qcurve" smooth="yes"/>
      <point x="64" y="16"/>
      <point x="-36" y="155"/>
    </contour>
    <contour>
      <point x="129" y="326" type="qcurve" smooth="yes"/>
      <point x="129" y="251"/>
      <point x="189" y="153"/>
      <point x="258" y="153" type="qcurve" smooth="yes"/>
      <point x="376" y="153"/>
      <point x="602" y="340"/>
      <point x="640" y="517" type="qcurve" smooth="yes"/>
      <point x="698" y="780" type="line"/>
      <point x="695" y="820"/>
      <point x="612" y="846"/>
      <point x="571" y="846" type="qcurve" smooth="yes"/>
      <point x="372" y="846"/>
      <point x="129" y="545"/>
    </contour>
  </outline>
</glyph>
<glyph name="h" format="2">
  <advance width="959"/>
  <unicode hex="0068"/>
  <anchor x="376.0" y="0" name="bottom"/>
  <anchor x="303.0" y="1202" name="center"/>
  <anchor x="380.0" y="1534" name="top"/>
  <outline>
    <contour>
      <point x="12" y="-23" type="line"/>
      <point x="-30" y="56" type="line"/>
      <point x="73" y="527" type="line"/>
      <point x="231" y="1404" type="line"/>
      <point x="127" y="1500" type="line"/>
      <point x="155" y="1572" type="line"/>
      <point x="336" y="1602" type="line"/>
      <point x="423" y="1532" type="line"/>
      <point x="240" y="588" type="line"/>
      <point x="155" y="87" type="line"/>
      <point x="186" y="0" type="line"/>
    </contour>
    <contour>
      <point x="648" y="-14" type="line"/>
      <point x="607" y="75" type="line"/>
      <point x="730" y="702" type="line" smooth="yes"/>
      <point x="746" y="785"/>
      <point x="703" y="877"/>
      <point x="626" y="877" type="qcurve" smooth="yes"/>
      <point x="528" y="877"/>
      <point x="281" y="704"/>
      <point x="157" y="564" type="qcurve"/>
      <point x="186" y="707" type="line"/>
      <point x="273" y="821"/>
      <point x="568" y="1021"/>
      <point x="686" y="1021" type="qcurve" smooth="yes"/>
      <point x="795" y="1021"/>
      <point x="928" y="878"/>
      <point x="900" y="742" type="qcurve" smooth="yes"/>
      <point x="775" y="134" type="line"/>
      <point x="911" y="134" type="line"/>
      <point x="911" y="46" type="line"/>
    </contour>
  </outline>
</glyph>
<glyph name="k" format="2">
  <advance width="960"/>
  <unicode hex="006B"/>
  <anchor x="404.0" y="0" name="bottom"/>
  <anchor x="534.0" y="1534" name="top"/>
  <outline>
    <contour>
      <point x="480" y="466" type="line"/>
      <point x="75" y="163" type="line"/>
      <point x="98" y="281" type="line"/>
      <point x="673" y="726" type="line"/>
      <point x="673" y="803"/>
      <point x="594" y="888"/>
      <point x="541" y="888" type="qcurve" smooth="yes"/>
      <point x="463" y="888"/>
      <point x="302" y="735"/>
      <point x="251" y="644" type="qcurve"/>
      <point x="240" y="588" type="line"/>
      <point x="155" y="87" type="line"/>
      <point x="186" y="4" type="line"/>
      <point x="12" y="-23" type="line"/>
      <point x="-30" y="56" type="line"/>
      <point x="73" y="527" type="line"/>
      <point x="230" y="1408" type="line"/>
      <point x="126" y="1500" type="line"/>
      <point x="154" y="1572" type="line"/>
      <point x="335" y="1606" type="line"/>
      <point x="422" y="1536" type="line"/>
      <point x="280" y="798" type="line"/>
      <point x="340" y="890"/>
      <point x="509" y="1016"/>
      <point x="598" y="1016" type="qcurve" smooth="yes"/>
      <point x="693" y="1016"/>
      <point x="807" y="898"/>
      <point x="817" y="814" type="qcurve" smooth="yes"/>
      <point x="828" y="725" type="line"/>
      <point x="817" y="703" type="line"/>
    </contour>
    <contour>
      <point x="521" y="547" type="line"/>
      <point x="773" y="133" type="line"/>
      <point x="897" y="133" type="line"/>
      <point x="897" y="45" type="line"/>
      <point x="682" y="-6" type="line" smooth="yes"/>
      <point x="667" y="-10"/>
      <point x="645" y="12"/>
      <point x="587" y="115" type="qcurve" smooth="yes"/>
      <point x="396" y="455" type="line"/>
    </contour>
  </outline>
</glyph>
<glyph name="l" format="2">
  <advance width="412"/>
  <unicode hex="006C"/>
  <anchor x="163.0" y="0" name="bottom"/>
  <anchor x="198.0" y="770.0" name="center"/>
  <anchor x="398.0" y="1534" name="top"/>
  <anchor x="454" y="1000" name="topright"/>
  <anchor x="669.0" y="742.0" name="centerright"/>
  <outline>
    <contour>
      <point x="27" y="-14" type="line"/>
      <point x="-20" y="86" type="line"/>
      <point x="89" y="606" type="line"/>
      <point x="237" y="1408" type="line"/>
      <point x="113" y="1500" type="line"/>
      <point x="141" y="1572" type="line"/>
      <point x="342" y="1606" type="line"/>
      <point x="429" y="1536" type="line"/>
      <point x="247" y="588" type="line"/>
      <point x="164" y="134" type="line"/>
      <point x="360" y="154" type="line"/>
      <point x="360" y="66" type="line"/>
    </contour>
  </outline>
</glyph>
<glyph name="m" format="2">
  <advance width="1526"/>
  <unicode hex="006D"/>
  <anchor x="894.0" y="0" name="bottom"/>
  <anchor x="894.0" y="1000" name="top"/>
  <anchor x="1508" y="134" name="cy_descender"/>
  <outline>
    <contour>
      <point x="12" y="-23" type="line"/>
      <point x="-30" y="56" type="line"/>
      <point x="73" y="527" type="line"/>
      <point x="125" y="822" type="line"/>
      <point x="-17" y="818" type="line"/>
      <point x="-15" y="915" type="line"/>
      <point x="204" y="1001" type="line"/>
      <point x="250" y="1001" type="line"/>
      <point x="283" y="736" type="line"/>
      <point x="250" y="588" type="line"/>
      <point x="145" y="87" type="line"/>
      <point x="176" y="4" type="line"/>
    </contour>
    <contour>
      <point x="607" y="-10" type="line"/>
      <point x="581" y="65" type="line"/>
      <point x="704" y="702" type="line" smooth="yes"/>
      <point x="720" y="785"/>
      <point x="683" y="877"/>
      <point x="606" y="877" type="qcurve" smooth="yes"/>
      <point x="508" y="877"/>
      <point x="280" y="700"/>
      <point x="164" y="563" type="qcurve"/>
      <point x="193" y="702" type="line"/>
      <point x="267" y="819"/>
      <point x="548" y="1021"/>
      <point x="666" y="1021" type="qcurve" smooth="yes"/>
      <point x="775" y="1021"/>
      <point x="905" y="877"/>
      <point x="874" y="742" type="qcurve" smooth="yes"/>
      <point x="751" y="119" type="line"/>
      <point x="797" y="20" type="line"/>
    </contour>
    <contour>
      <point x="1212" y="-25" type="line"/>
      <point x="1171" y="64" type="line"/>
      <point x="1297" y="702" type="line" smooth="yes"/>
      <point x="1313" y="785"/>
      <point x="1276" y="877"/>
      <point x="1199" y="877" type="qcurve" smooth="yes"/>
      <point x="1101" y="877"/>
      <point x="873" y="700"/>
      <point x="761" y="564" type="qcurve"/>
      <point x="784" y="710" type="line"/>
      <point x="860" y="819"/>
      <point x="1141" y="1021"/>
      <point x="1259" y="1021" type="qcurve" smooth="yes"/>
      <point x="1368" y="1021"/>
      <point x="1497" y="877"/>
      <point x="1467" y="742" type="qcurve" smooth="yes"/>
      <point x="1342" y="134" type="line"/>
      <point x="1478" y="134" type="line"/>
      <point x="1478" y="46" type="line"/>
    </contour>
  </outline>
</glyph>
<glyph name="n" format="2">
  <advance width="959"/>
  <unicode hex="006E"/>
  <anchor x="458.0" y="0" name="bottom"/>
  <anchor x="538.0" y="1000" name="top"/>
  <outline>
    <contour>
      <point x="12" y="-23" type="line"/>
      <point x="-30" y="56" type="line"/>
      <point x="73" y="527" type="line"/>
      <point x="125" y="822" type="line"/>
      <point x="-17" y="818" type="line"/>
      <point x="-15" y="915" type="line"/>
      <point x="204" y="1000" type="line"/>
      <point x="250" y="1000" type="line"/>
      <point x="283" y="736" type="line"/>
      <point x="250" y="588" type="line"/>
      <point x="145" y="83" type="line"/>
      <point x="176" y="0" type="line"/>
    </contour>
    <contour>
      <point x="648" y="-14" type="line"/>
      <point x="607" y="75" type="line"/>
      <point x="730" y="702" type="line" smooth="yes"/>
      <point x="746" y="785"/>
      <point x="703" y="877"/>
      <point x="626" y="877" type="qcurve" smooth="yes"/>
      <point x="528" y="877"/>
      <point x="280" y="700"/>
      <point x="167" y="569" type="qcurve"/>
      <point x="192" y="704" type="line"/>
      <point x="267" y="819"/>
      <point x="568" y="1021"/>
      <point x="686" y="1021" type="qcurve" smooth="yes"/>
      <point x="795" y="1021"/>
      <point x="928" y="878"/>
      <point x="900" y="742" type="qcurve" smooth="yes"/>
      <point x="775" y="134" type="line"/>
      <point x="911" y="134" type="line"/>
      <point x="911" y="46" type="line"/>
    </contour>
  </outline>
</glyph>
<glyph name="o" format="2">
  <advance width="930"/>
  <unicode hex="006F"/>
  <anchor x="327.6159169550173" y="0" name="bottom"/>
  <anchor x="430.6159169550173" y="500.0" name="center"/>
  <anchor x="483.61591695501727" y="0" name="ogonek"/>
  <anchor x="553.6159169550173" y="1000" name="top"/>
  <anchor x="632.6159169550173" y="1000" name="topright"/>
  <anchor x="553.6159169550173" y="1000" name="GRKtop"/>
  <anchor x="52.6159169550173" y="498" name="yu_dash"/>
  <outline>
    <contour>
      <point x="-19.384083044982695" y="532" type="qcurve" smooth="yes"/>
      <point x="26.615916955017305" y="746"/>
      <point x="337.6159169550173" y="1030"/>
      <point x="538.6159169550173" y="1016" type="qcurve" smooth="yes"/>
      <point x="739.6159169550173" y="1002"/>
      <point x="930.6159169550173" y="703"/>
      <point x="881.6159169550173" y="475" type="qcurve" smooth="yes"/>
      <point x="836.6159169550173" y="261"/>
      <point x="525.6159169550173" y="-30"/>
      <point x="323.6159169550173" y="-16" type="qcurve" smooth="yes"/>
      <point x="122.6159169550173" y="-2"/>
      <point x="-68.3840830449827" y="301"/>
    </contour>
    <contour>
      <point x="148.6159169550173" y="537" type="qcurve" smooth="yes"/>
      <point x="111.6159169550173" y="359"/>
      <point x="208.6159169550173" y="103"/>
      <point x="339.6159169550173" y="93" type="qcurve" smooth="yes"/>
      <point x="480.6159169550173" y="84"/>
      <point x="672.6159169550173" y="301"/>
      <point x="711.6159169550173" y="488" type="qcurve" smooth="yes"/>
      <point x="748.6159169550173" y="660"/>
      <point x="644.6159169550173" y="892"/>
      <point x="513.6159169550173" y="901" type="qcurve" smooth="yes"/>
      <point x="371.6159169550173" y="911"/>
      <point x="184.6159169550173" y="715"/>
    </contour>
  </outline>
</glyph>
<glyph name="p" format="2">
  <advance width="907"/>
  <unicode hex="0070"/>
  <anchor x="524.0" y="0" name="bottom"/>
  <anchor x="524.0" y="1000" name="top"/>
  <outline>
    <contour>
      <point x="-134" y="-392" type="line"/>
      <point x="37" y="451" type="line"/>
      <point x="99" y="773" type="line"/>
      <point x="65" y="970" type="line"/>
      <point x="183" y="1026" type="line"/>
      <point x="226" y="1026" type="line"/>
      <point x="251" y="830" type="line"/>
      <point x="338" y="901"/>
      <point x="554" y="1006"/>
      <point x="636" y="1006" type="qcurve" smooth="yes"/>
      <point x="753" y="1006"/>
      <point x="857" y="877"/>
      <point x="857" y="768" type="qcurve" smooth="yes"/>
      <point x="857" y="427"/>
      <point x="420" y="30"/>
      <point x="210" y="30" type="qcurve" smooth="yes"/>
      <point x="179" y="30"/>
      <point x="127" y="41"/>
      <point x="106" y="51" type="qcurve"/>
      <point x="37" y="-316" type="line"/>
      <point x="162" y="-356" type="line"/>
      <point x="134" y="-428" type="line"/>
      <point x="-47" y="-462" type="line"/>
    </contour>
    <contour>
      <point x="146" y="269" type="line"/>
      <point x="135" y="208"/>
      <point x="192" y="169"/>
      <point x="241" y="169" type="qcurve" smooth="yes"/>
      <point x="440" y="169"/>
      <point x="688" y="477"/>
      <point x="688" y="716" type="qcurve" smooth="yes"/>
      <point x="688" y="791"/>
      <point x="627" y="858"/>
      <point x="558" y="858" type="qcurve" smooth="yes"/>
      <point x="482" y="858"/>
      <point x="298" y="756"/>
      <point x="225" y="691" type="qcurve"/>
      <point x="180" y="448" type="line"/>
    </contour>
  </outline>
</glyph>
<glyph name="q" format="2">
  <advance width="897"/>
  <unicode hex="0071"/>
  <anchor x="574.0" y="0" name="bottom"/>
  <anchor x="574.0" y="1000" name="top"/>
  <outline>
    <contour>
      <point x="-26" y="273" type="qcurve" smooth="yes"/>
      <point x="-26" y="573"/>
      <point x="394" y="985"/>
      <point x="604" y="985" type="qcurve" smooth="yes"/>
      <point x="622" y="985"/>
      <point x="657" y="978"/>
      <point x="673" y="971" type="qcurve"/>
      <point x="776" y="1034" type="line"/>
      <point x="822" y="1034" type="line"/>
      <point x="885" y="895" type="line"/>
      <point x="791" y="506" type="line"/>
      <point x="598" y="-316" type="line"/>
      <point x="723" y="-356" type="line"/>
      <point x="695" y="-428" type="line"/>
      <point x="514" y="-462" type="line"/>
      <point x="427" y="-391" type="line"/>
      <point x="569" y="182" type="line"/>
      <point x="558" y="185" type="line"/>
      <point x="471" y="93"/>
      <point x="266" y="15"/>
      <point x="195" y="15" type="qcurve" smooth="yes"/>
      <point x="78" y="15"/>
      <point x="-26" y="164"/>
    </contour>
    <contour>
      <point x="143" y="325" type="qcurve" smooth="yes"/>
      <point x="143" y="250"/>
      <point x="203" y="152"/>
      <point x="272" y="152" type="qcurve" smooth="yes"/>
      <point x="390" y="152"/>
      <point x="605" y="339"/>
      <point x="637" y="516" type="qcurve" smooth="yes"/>
      <point x="693" y="780" type="line"/>
      <point x="690" y="820"/>
      <point x="624" y="846"/>
      <point x="583" y="846" type="qcurve" smooth="yes"/>
      <point x="384" y="846"/>
      <point x="143" y="544"/>
    </contour>
  </outline>
</glyph>
<glyph name="r" format="2">
  <advance width="713"/>
  <unicode hex="0072"/>
  <anchor x="212.0" y="0" name="bottom"/>
  <anchor x="416.0" y="1000" name="top"/>
  <outline>
    <contour>
      <point x="10" y="-14" type="line"/>
      <point x="-31" y="75" type="line"/>
      <point x="74" y="527" type="line"/>
      <point x="112" y="822" type="line"/>
      <point x="-30" y="818" type="line"/>
      <point x="-28" y="915" type="line"/>
      <point x="181" y="1001" type="line"/>
      <point x="237" y="1001" type="line"/>
      <point x="254" y="807" type="line"/>
      <point x="269" y="741" type="line"/>
      <point x="153" y="137" type="line"/>
      <point x="284" y="106" type="line"/>
      <point x="284" y="18" type="line"/>
    </contour>
    <contour>
      <point x="561" y="648" type="line"/>
      <point x="549" y="865" type="line"/>
      <point x="451" y="865"/>
      <point x="273" y="737"/>
      <point x="163" y="568" type="qcurve"/>
      <point x="176" y="681" type="line"/>
      <point x="269" y="847"/>
      <point x="491" y="1013"/>
      <point x="602" y="1013" type="qcurve" smooth="yes"/>
      <point x="657" y="1013"/>
      <point x="712" y="980"/>
      <point x="712" y="937" type="qcurve" smooth="yes"/>
      <point x="712" y="853"/>
      <point x="640" y="648"/>
      <point x="584" y="648" type="qcurve" smooth="yes"/>
    </contour>
  </outline>
</glyph>
<glyph name="s" format="2">
  <advance width="709"/>
  <unicode hex="0073"/>
  <anchor x="252.0" y="0" name="bottom"/>
  <anchor x="416.0" y="1000" name="top"/>
  <outline>
    <contour>
      <point x="-55" y="210" type="qcurve" smooth="yes"/>
      <point x="-55" y="290"/>
      <point x="30" y="380"/>
      <point x="87" y="380" type="qcurve" smooth="yes"/>
      <point x="113" y="380" type="line"/>
      <point x="113" y="195" type="line" smooth="yes"/>
      <point x="113" y="148"/>
      <point x="184" y="98"/>
      <point x="265" y="98" type="qcurve" smooth="yes"/>
      <point x="361" y="98"/>
      <point x="488" y="177"/>
      <point x="488" y="251" type="qcurve" smooth="yes"/>
      <point x="488" y="316"/>
      <point x="389" y="405"/>
      <point x="287" y="472" type="qcurve" smooth="yes"/>
      <point x="180" y="542"/>
      <point x="65" y="669"/>
      <point x="66" y="756" type="qcurve" smooth="yes"/>
      <point x="67" y="861"/>
      <point x="275" y="1018"/>
      <point x="437" y="1018" type="qcurve" smooth="yes"/>
      <point x="556" y="1018"/>
      <point x="682" y="907"/>
      <point x="682" y="831" type="qcurve" smooth="yes"/>
      <point x="682" y="767"/>
      <point x="609" y="677"/>
      <point x="559" y="677" type="qcurve" smooth="yes"/>
      <point x="532" y="677" type="line"/>
      <point x="532" y="812" type="line" smooth="yes"/>
      <point x="532" y="839"/>
      <point x="471" y="901"/>
      <point x="399" y="901" type="qcurve" smooth="yes"/>
      <point x="324" y="901"/>
      <point x="211" y="842"/>
      <point x="211" y="788" type="qcurve" smooth="yes"/>
      <point x="211" y="736"/>
      <point x="300" y="662"/>
      <point x="390" y="603" type="qcurve" smooth="yes"/>
      <point x="497" y="533"/>
      <point x="635" y="399"/>
      <point x="635" y="287" type="qcurve"/>
      <point x="637" y="159"/>
      <point x="420" y="-15"/>
      <point x="248" y="-15" type="qcurve" smooth="yes"/>
      <point x="99" y="-15"/>
      <point x="-55" y="127"/>
    </contour>
  </outline>
</glyph>
<glyph name="t" format="2">
  <advance width="513"/>
  <unicode hex="0074"/>
  <anchor x="99" y="0" name="bottom"/>
  <anchor x="212" y="622.0" name="center"/>
  <anchor x="272" y="1179" name="top"/>
  <anchor x="550" y="920" name="topright"/>
  <outline>
    <contour>
      <point x="55" y="-15" type="line"/>
      <point x="-19" y="117" type="line"/>
      <point x="78" y="512" type="line"/>
      <point x="135" y="830" type="line"/>
      <point x="-26" y="842" type="line"/>
      <point x="-11" y="916" type="line"/>
      <point x="91" y="952"/>
      <point x="227" y="1145"/>
      <point x="255" y="1237" type="qcurve"/>
      <point x="315" y="1237" type="line"/>
      <point x="341" y="1197" type="line"/>
      <point x="226" y="524" type="line"/>
      <point x="164" y="134" type="line"/>
      <point x="350" y="154" type="line"/>
      <point x="350" y="66" type="line"/>
    </contour>
    <contour>
      <point x="179" y="849" type="line"/>
      <point x="224" y="980" type="line"/>
      <point x="529" y="980" type="line"/>
      <point x="529" y="875" type="line"/>
    </contour>
  </outline>
</glyph>
<glyph name="u" format="2">
  <advance width="986"/>
  <unicode hex="0075"/>
  <anchor x="359.0" y="0" name="bottom"/>
  <anchor x="826" y="20" name="ogonek"/>
  <anchor x="527.0" y="1000" name="top"/>
  <anchor x="870" y="1000" name="topright"/>
  <anchor x="973" y="134" name="cy_descender"/>
  <outline>
    <contour>
      <point x="686" y="-15" type="line"/>
      <point x="644" y="76" type="line"/>
      <point x="655" y="278" type="line"/>
      <point x="770" y="911" type="line"/>
      <point x="739" y="994" type="line"/>
      <point x="903" y="1021" type="line"/>
      <point x="945" y="942" type="line"/>
      <point x="828" y="362" type="line"/>
      <point x="802" y="134" type="line"/>
      <point x="938" y="134" type="line"/>
      <point x="940" y="47" type="line"/>
    </contour>
    <contour>
      <point x="21" y="272" type="qcurve" smooth="yes"/>
      <point x="132" y="822" type="line"/>
      <point x="-10" y="819" type="line"/>
      <point x="-8" y="915" type="line"/>
      <point x="211" y="1002" type="line"/>
      <point x="256" y="1002" type="line"/>
      <point x="298" y="923" type="line"/>
      <point x="191" y="312" type="line" smooth="yes"/>
      <point x="176" y="229"/>
      <point x="218" y="137"/>
      <point x="295" y="137" type="qcurve" smooth="yes"/>
      <point x="393" y="137"/>
      <point x="625" y="298"/>
      <point x="769" y="476" type="qcurve"/>
      <point x="744" y="332" type="line"/>
      <point x="638" y="179"/>
      <point x="353" y="-7"/>
      <point x="235" y="-7" type="qcurve" smooth="yes"/>
      <point x="126" y="-7"/>
      <point x="-7" y="135"/>
    </contour>
  </outline>
</glyph>
<glyph name="v" format="2">
  <advance width="869"/>
  <unicode hex="0076"/>
  <anchor x="473.0" y="0" name="bottom"/>
  <anchor x="473.0" y="1000" name="top"/>
  <outline>
    <contour>
      <point x="197" y="-8" type="line"/>
      <point x="131" y="500" type="line"/>
      <point x="90" y="821" type="line"/>
      <point x="-52" y="818" type="line"/>
      <point x="-50" y="915" type="line"/>
      <point x="169" y="1001" type="line"/>
      <point x="237" y="1001" type="line"/>
      <point x="287" y="556" type="line"/>
      <point x="320" y="283" type="line"/>
      <point x="331" y="174" type="line"/>
      <point x="341" y="174" type="line"/>
      <point x="423" y="283" type="line"/>
      <point x="555" y="454"/>
      <point x="663" y="643"/>
      <point x="663" y="712" type="qcurve" smooth="yes"/>
      <point x="663" y="792"/>
      <point x="568" y="896"/>
      <point x="568" y="940" type="qcurve" smooth="yes"/>
      <point x="568" y="983"/>
      <point x="636" y="1041"/>
      <point x="683" y="1041" type="qcurve" smooth="yes"/>
      <point x="742" y="1041"/>
      <point x="826" y="944"/>
      <point x="826" y="837" type="qcurve" smooth="yes"/>
      <point x="826" y="699"/>
      <point x="609" y="340"/>
      <point x="319" y="-8" type="qcurve"/>
    </contour>
  </outline>
</glyph>
<glyph name="w" format="2">
  <advance width="1355"/>
  <unicode hex="0077"/>
  <anchor x="747" y="0" name="bottom"/>
  <anchor x="677" y="1000" name="top"/>
  <outline>
    <contour>
      <point x="206" y="-8" type="line"/>
      <point x="142" y="486" type="line"/>
      <point x="99" y="822" type="line"/>
      <point x="-43" y="822" type="line"/>
      <point x="-41" y="919" type="line"/>
      <point x="176" y="1001" type="line"/>
      <point x="248" y="1001" type="line"/>
      <point x="295" y="538" type="line"/>
      <point x="324" y="284" type="line"/>
      <point x="334" y="174" type="line"/>
      <point x="344" y="174" type="line"/>
      <point x="409" y="284" type="line"/>
      <point x="611" y="602" type="line"/>
      <point x="577" y="822" type="line"/>
      <point x="485" y="822" type="line"/>
      <point x="485" y="920" type="line"/>
      <point x="659" y="1001" type="line"/>
      <point x="727" y="1001" type="line"/>
      <point x="784" y="535" type="line"/>
      <point x="816" y="290" type="line"/>
      <point x="830" y="168" type="line"/>
      <point x="840" y="168" type="line"/>
      <point x="933" y="290" type="line"/>
      <point x="1063" y="456"/>
      <point x="1165" y="648"/>
      <point x="1165" y="721" type="qcurve" smooth="yes"/>
      <point x="1165" y="796"/>
      <point x="1066" y="893"/>
      <point x="1064" y="939" type="qcurve" smooth="yes"/>
      <point x="1062" y="978"/>
      <point x="1122" y="1041"/>
      <point x="1168" y="1041" type="qcurve"/>
      <point x="1226" y="1044"/>
      <point x="1321" y="942"/>
      <point x="1321" y="833" type="qcurve" smooth="yes"/>
      <point x="1321" y="689"/>
      <point x="1096" y="322"/>
      <point x="824" y="-8" type="qcurve"/>
      <point x="702" y="-8" type="line"/>
      <point x="652" y="330" type="line"/>
      <point x="639" y="445" type="line"/>
      <point x="629" y="445" type="line"/>
      <point x="557" y="330" type="line"/>
      <point x="328" y="-8" type="line"/>
    </contour>
  </outline>
</glyph>
<glyph name="x" format="2">
  <advance width="850"/>
  <unicode hex="0078"/>
  <anchor x="442" y="0" name="bottom"/>
  <anchor x="442" y="1000" name="top"/>
  <anchor x="752" y="134" name="cy_descender"/>
  <outline>
    <contour>
      <point x="-69" y="-12" type="qcurve"/>
      <point x="-251" y="44" type="line"/>
      <point x="-238" y="139" type="line"/>
      <point x="-68" y="137" type="line" smooth="yes"/>
      <point x="-30" y="136"/>
      <point x="60" y="203"/>
      <point x="108" y="256" type="qcurve" smooth="yes"/>
      <point x="151" y="303"/>
      <point x="238" y="420"/>
      <point x="279" y="479" type="qcurve"/>
      <point x="140" y="839" type="line"/>
      <point x="-40" y="818" type="line"/>
      <point x="-38" y="915" type="line"/>
      <point x="191" y="1004" type="line"/>
      <point x="264" y="985" type="line"/>
      <point x="349" y="737" type="line"/>
      <point x="380" y="637" type="line"/>
      <point x="390" y="637" type="line"/>
      <point x="447" y="723" type="line" smooth="yes"/>
      <point x="465" y="750"/>
      <point x="514" y="825"/>
      <point x="544" y="862" type="qcurve" smooth="yes"/>
      <point x="588" y="917"/>
      <point x="696" y="1002"/>
      <point x="756" y="1002" type="qcurve" smooth="yes"/>
      <point x="812" y="1002"/>
      <point x="862" y="955"/>
      <point x="862" y="915" type="qcurve" smooth="yes"/>
      <point x="862" y="866"/>
      <point x="791" y="802"/>
      <point x="765" y="802" type="qcurve"/>
      <point x="749" y="813" type="line"/>
      <point x="749" y="837" type="line" smooth="yes"/>
      <point x="749" y="853"/>
      <point x="734" y="870"/>
      <point x="719" y="870" type="qcurve" smooth="yes"/>
      <point x="699" y="870"/>
      <point x="628" y="805"/>
      <point x="589" y="752" type="qcurve" smooth="yes"/>
      <point x="553" y="703"/>
      <point x="467" y="583"/>
      <point x="425" y="521" type="qcurve"/>
      <point x="573" y="134" type="line"/>
      <point x="712" y="134" type="line"/>
      <point x="712" y="46" type="line"/>
      <point x="510" y="-11" type="line"/>
      <point x="441" y="7" type="line"/>
      <point x="353" y="266" type="line"/>
      <point x="323" y="361" type="line"/>
      <point x="313" y="361" type="line"/>
      <point x="251" y="267" type="line"/>
      <point x="238" y="248"/>
      <point x="192" y="179"/>
      <point x="162" y="142" type="qcurve" smooth="yes"/>
      <point x="116" y="85"/>
      <point x="-4" y="-13"/>
    </contour>
  </outline>
</glyph>
<glyph name="y" format="2">
  <advance width="876"/>
  <unicode hex="0079"/>
  <anchor x="742.0" y="0" name="bottom"/>
  <anchor x="464.0" y="1000" name="top"/>
  <outline>
    <contour>
      <point x="-401" y="-405" type="line"/>
      <point x="-366" y="-304" type="line"/>
      <point x="-206" y="-304" type="line" smooth="yes"/>
      <point x="-70" y="-304"/>
      <point x="181" y="-157"/>
      <point x="264" y="-28" type="qcurve" smooth="yes"/>
      <point x="281" y="0" type="line"/>
      <point x="204" y="0" type="line"/>
      <point x="204" y="63"/>
      <point x="128" y="630"/>
      <point x="90" y="822" type="qcurve"/>
      <point x="-52" y="818" type="line"/>
      <point x="-50" y="915" type="line"/>
      <point x="169" y="1001" type="line"/>
      <point x="247" y="1001" type="line"/>
      <point x="270" y="890" type="line"/>
      <point x="341" y="215" type="line"/>
      <point x="349" y="106" type="line"/>
      <point x="359" y="106" type="line"/>
      <point x="430" y="216" type="line" smooth="yes"/>
      <point x="537" y="382"/>
      <point x="653" y="632"/>
      <point x="653" y="744" type="qcurve" smooth="yes"/>
      <point x="653" y="810"/>
      <point x="597" y="895"/>
      <point x="597" y="933" type="qcurve" smooth="yes"/>
      <point x="597" y="973"/>
      <point x="658" y="1024"/>
      <point x="698" y="1024" type="qcurve" smooth="yes"/>
      <point x="760" y="1024"/>
      <point x="836" y="919"/>
      <point x="836" y="839" type="qcurve" smooth="yes"/>
      <point x="836" y="734"/>
      <point x="597" y="270"/>
      <point x="388" y="-22" type="qcurve" smooth="yes"/>
      <point x="363" y="-57" type="line" smooth="yes"/>
      <point x="235" y="-237"/>
      <point x="-77" y="-464"/>
      <point x="-191" y="-464" type="qcurve"/>
    </contour>
  </outline>
</glyph>
<glyph name="z" format="2">
  <advance width="725"/>
  <unicode hex="007A"/>
  <anchor x="363" y="0" name="bottom"/>
  <anchor x="383" y="1000" name="top"/>
  <outline>
    <contour>
      <point x="-90" y="-10" type="line"/>
      <point x="-165" y="73" type="line"/>
      <point x="-63" y="192"/>
      <point x="172" y="466"/>
      <point x="244" y="547" type="qcurve" smooth="yes"/>
      <point x="297" y="608"/>
      <point x="462" y="769"/>
      <point x="542" y="850" type="qcurve"/>
      <point x="121" y="846" type="line"/>
      <point x="73" y="720" type="line"/>
      <point x="-35" y="720" type="line"/>
      <point x="22" y="973" type="line"/>
      <point x="84" y="992" type="line"/>
      <point x="691" y="992" type="line"/>
      <point x="719" y="875" type="line"/>
      <point x="633" y="779"/>
      <point x="427" y="554"/>
      <point x="373" y="491" type="qcurve" smooth="yes"/>
      <point x="319" y="429"/>
      <point x="170" y="274"/>
      <point x="100" y="210" type="qcurve"/>
      <point x="506" y="133" type="line"/>
      <point x="598" y="260" type="line"/>
      <point x="687" y="235" type="line"/>
      <point x="606" y="-10" type="line"/>
      <point x="569" y="-29" type="line"/>
      <point x="14" y="83" type="line"/>
    </contour>
  </outline>
</glyph>
<glyph name="exclamdown" format="2">
  <advance width="314"/>
  <unicode hex="00A1"/>
  <outline>
    <contour>
      <point x="433.3225806451613" y="1212" type="qcurve" smooth="yes"/>
      <point x="433.3225806451613" y="1157"/>
      <point x="356.3225806451613" y="1076"/>
      <point x="296.3225806451613" y="1076" type="qcurve" smooth="yes"/>
      <point x="237.32258064516128" y="1076"/>
      <point x="160.32258064516128" y="1157"/>
      <point x="160.32258064516128" y="1212" type="qcurve" smooth="yes"/>
      <point x="160.32258064516128" y="1266"/>
      <point x="237.32258064516128" y="1348"/>
      <point x="296.3225806451613" y="1348" type="qcurve" smooth="yes"/>
      <point x="356.3225806451613" y="1348"/>
      <point x="433.3225806451613" y="1266"/>
    </contour>
    <contour>
      <point x="146.32258064516128" y="-39" type="line" smooth="yes"/>
      <point x="135.32258064516128" y="-107"/>
      <point x="79.3225806451613" y="-194"/>
      <point x="24.322580645161295" y="-195" type="qcurve" smooth="yes"/>
      <point x="-30.677419354838705" y="-196"/>
      <point x="-58.677419354838705" y="-109"/>
      <point x="-41.677419354838705" y="-40" type="qcurve" smooth="yes"/>
      <point x="23.322580645161295" y="228" type="line"/>
      <point x="107.32258064516128" y="536" type="line"/>
      <point x="191.32258064516128" y="901" type="line"/>
      <point x="283.3225806451613" y="886" type="line"/>
      <point x="227.32258064516128" y="536" type="line"/>
      <point x="189.32258064516128" y="228" type="line"/>
    </contour>
  </outline>
</glyph>
<glyph name="periodcentered" format="2">
  <advance width="314"/>
  <unicode hex="00B7"/>
  <outline>
    <contour>
      <point x="-7" y="667" type="qcurve" smooth="yes"/>
      <point x="-7" y="722"/>
      <point x="70" y="804"/>
      <point x="130" y="804" type="qcurve" smooth="yes"/>
      <point x="190" y="804"/>
      <point x="267" y="722"/>
      <point x="267" y="667" type="qcurve" smooth="yes"/>
      <point x="267" y="613"/>
      <point x="190" y="531"/>
      <point x="130" y="531" type="qcurve" smooth="yes"/>
      <point x="70" y="531"/>
      <point x="-7" y="613"/>
    </contour>
  </outline>
</glyph>
<glyph name="Thorn" format="2">
  <advance width="1101"/>
  <unicode hex="00DE"/>
  <outline>
    <contour>
      <point x="358" y="1249" type="line"/>
      <point x="659" y="1249" type="line" smooth="yes"/>
      <point x="876" y="1249"/>
      <point x="1092" y="977"/>
      <point x="1050" y="765" type="qcurve" smooth="yes"/>
      <point x="1009" y="558"/>
      <point x="710" y="328"/>
      <point x="485" y="328" type="qcurve" smooth="yes"/>
      <point x="346" y="328"/>
      <point x="167" y="349"/>
      <point x="127" y="360" type="qcurve"/>
      <point x="147" y="463" type="line"/>
      <point x="200" y="453"/>
      <point x="349" y="436"/>
      <point x="471" y="436" type="qcurve" smooth="yes"/>
      <point x="626" y="436"/>
      <point x="846" y="614"/>
      <point x="878" y="783" type="qcurve" smooth="yes"/>
      <point x="909" y="938"/>
      <point x="774" y="1131"/>
      <point x="629" y="1131" type="qcurve" smooth="yes"/>
      <point x="364" y="1131" type="line"/>
      <point x="338" y="1109" type="line"/>
      <point x="276" y="764" type="line"/>
      <point x="160" y="122" type="line"/>
      <point x="360" y="100" type="line"/>
      <point x="351" y="0" type="line"/>
      <point x="-209" y="0" type="line"/>
      <point x="-200" y="100" type="line"/>
      <point x="-3" y="127" type="line"/>
      <point x="114" y="754" type="line"/>
      <point x="224" y="1362" type="line"/>
      <point x="41" y="1386" type="line"/>
      <point x="54" y="1500" type="line"/>
      <point x="615" y="1500" type="line"/>
      <point x="592" y="1386" type="line"/>
      <point x="378" y="1363" type="line"/>
    </contour>
  </outline>
</glyph>
<glyph name="thorn" format="2">
  <advance width="939"/>
  <unicode hex="00FE"/>
  <outline>
    <contour>
      <point x="-102" y="-392" type="line"/>
      <point x="68" y="512" type="line"/>
      <point x="218" y="1410" type="line"/>
      <point x="114" y="1502" type="line"/>
      <point x="142" y="1574" type="line"/>
      <point x="323" y="1608" type="line"/>
      <point x="410" y="1538" type="line"/>
      <point x="283" y="830" type="line"/>
      <point x="370" y="901"/>
      <point x="586" y="1006"/>
      <point x="668" y="1006" type="qcurve" smooth="yes"/>
      <point x="785" y="1006"/>
      <point x="889" y="877"/>
      <point x="889" y="768" type="qcurve" smooth="yes"/>
      <point x="889" y="427"/>
      <point x="452" y="30"/>
      <point x="242" y="30" type="qcurve" smooth="yes"/>
      <point x="211" y="30"/>
      <point x="159" y="41"/>
      <point x="138" y="51" type="qcurve"/>
      <point x="69" y="-316" type="line"/>
      <point x="194" y="-356" type="line"/>
      <point x="166" y="-428" type="line"/>
      <point x="-15" y="-462" type="line"/>
    </contour>
    <contour>
      <point x="178" y="269" type="line"/>
      <point x="167" y="208"/>
      <point x="224" y="169"/>
      <point x="273" y="169" type="qcurve" smooth="yes"/>
      <point x="472" y="169"/>
      <point x="720" y="477"/>
      <point x="720" y="716" type="qcurve" smooth="yes"/>
      <point x="720" y="791"/>
      <point x="659" y="858"/>
      <point x="590" y="858" type="qcurve" smooth="yes"/>
      <point x="514" y="858"/>
      <point x="330" y="756"/>
      <point x="257" y="691" type="qcurve"/>
      <point x="220" y="494" type="line"/>
    </contour>
  </outline>
</glyph>
<glyph name="idotless" format="2">
  <advance width="360"/>
  <unicode hex="0131"/>
  <anchor x="94" y="0" name="bottom"/>
  <anchor x="234" y="1000" name="top"/>
  <anchor x="94" y="0" name="ogonek"/>
  <anchor x="153" y="498" name="yu_dash"/>
  <outline>
    <contour>
      <point x="19" y="-21" type="line"/>
      <point x="-22" y="68" type="line"/>
      <point x="72" y="527" type="line"/>
      <point x="133" y="820" type="line"/>
      <point x="-38" y="818" type="line"/>
      <point x="-36" y="915" type="line"/>
      <point x="212" y="1000" type="line"/>
      <point x="272" y="1000" type="line"/>
      <point x="313" y="888" type="line"/>
      <point x="284" y="789" type="line"/>
      <point x="161" y="140" type="line"/>
      <point x="382" y="164" type="line"/>
      <point x="382" y="76" type="line"/>
    </contour>
  </outline>
</glyph>
<glyph name="kgreenlandic" format="2">
  <advance width="929"/>
  <unicode hex="0138"/>
  <outline>
    <contour>
      <point x="-30" y="56" type="line"/>
      <point x="73" y="527" type="line"/>
      <point x="125" y="820" type="line"/>
      <point x="-17" y="816" type="line"/>
      <point x="-18" y="915" type="line"/>
      <point x="204" y="1003" type="line"/>
      <point x="249" y="1001" type="line"/>
      <point x="303" y="930" type="line"/>
      <point x="243" y="588" type="line"/>
      <point x="145" y="83" type="line"/>
      <point x="176" y="0" type="line"/>
      <point x="12" y="-23" type="line"/>
    </contour>
    <contour>
      <point x="896" y="908" type="line"/>
      <point x="775" y="862" type="line"/>
      <point x="472" y="601" type="line"/>
      <point x="773" y="133" type="line"/>
      <point x="897" y="133" type="line"/>
      <point x="897" y="45" type="line"/>
      <point x="662" y="-8" type="line" smooth="yes"/>
      <point x="647" y="-11"/>
      <point x="633" y="7"/>
      <point x="587" y="115" type="qcurve"/>
      <point x="344" y="507" type="line"/>
      <point x="120" y="359" type="line"/>
      <point x="138" y="457" type="line"/>
      <point x="651" y="865" type="line"/>
      <point x="656" y="894" type="line"/>
      <point x="544" y="917" type="line"/>
      <point x="555" y="1000" type="line"/>
      <point x="911" y="1000" type="line"/>
    </contour>
  </outline>
</glyph>
<glyph name="OE" format="2">
  <advance width="1891"/>
  <unicode hex="0152"/>
  <outline>
    <contour>
      <point x="23" y="846" type="qcurve" smooth="yes"/>
      <point x="108" y="1172"/>
      <point x="612" y="1534"/>
      <point x="888" y="1519" type="qcurve"/>
      <point x="1037" y="1511"/>
      <point x="1258" y="1500"/>
      <point x="1319" y="1500" type="qcurve" smooth="yes"/>
      <point x="1922" y="1500" type="line"/>
      <point x="1885" y="1152" type="line"/>
      <point x="1786" y="1152" type="line"/>
      <point x="1779" y="1382" type="line"/>
      <point x="1326" y="1382" type="line"/>
      <point x="1291" y="1362" type="line"/>
      <point x="1176" y="783" type="line"/>
      <point x="1054" y="135" type="line"/>
      <point x="1092" y="108" type="line"/>
      <point x="1608" y="108" type="line"/>
      <point x="1699" y="378" type="line"/>
      <point x="1799" y="378" type="line"/>
      <point x="1710" y="0" type="line"/>
      <point x="975" y="0" type="line" smooth="yes"/>
      <point x="882" y="0"/>
      <point x="602" y="-34"/>
      <point x="492" y="-17" type="qcurve" smooth="yes"/>
      <point x="207" y="27"/>
      <point x="-65" y="508"/>
    </contour>
    <contour>
      <point x="210" y="849" type="qcurve" smooth="yes"/>
      <point x="120" y="491"/>
      <point x="391" y="97"/>
      <point x="617" y="97" type="qcurve" smooth="yes"/>
      <point x="758" y="97"/>
      <point x="839" y="112"/>
      <point x="889" y="127" type="qcurve"/>
      <point x="1017" y="783" type="line"/>
      <point x="1126" y="1363" type="line"/>
      <point x="1084" y="1370"/>
      <point x="926" y="1386"/>
      <point x="891" y="1388" type="qcurve" smooth="yes"/>
      <point x="652" y="1401"/>
      <point x="288" y="1158"/>
    </contour>
    <contour>
      <point x="1094" y="768" type="line"/>
      <point x="1108" y="844" type="line"/>
      <point x="1537" y="854" type="line"/>
      <point x="1592" y="1003" type="line"/>
      <point x="1692" y="1003" type="line"/>
      <point x="1607" y="567" type="line"/>
      <point x="1507" y="567" type="line"/>
      <point x="1517" y="738" type="line"/>
    </contour>
  </outline>
</glyph>
<glyph name="oe" format="2">
  <advance width="1624"/>
  <unicode hex="0153"/>
  <outline>
    <contour>
      <point x="-19" y="532" type="qcurve" smooth="yes"/>
      <point x="27" y="746"/>
      <point x="338" y="1030"/>
      <point x="539" y="1016" type="qcurve" smooth="yes"/>
      <point x="655" y="1008"/>
      <point x="824" y="894"/>
      <point x="864" y="803" type="qcurve"/>
      <point x="948" y="905"/>
      <point x="1174" y="1030"/>
      <point x="1296" y="1030" type="qcurve" smooth="yes"/>
      <point x="1422" y="1030"/>
      <point x="1568" y="909"/>
      <point x="1572" y="849" type="qcurve" smooth="yes"/>
      <point x="1575" y="804"/>
      <point x="1568" y="703"/>
      <point x="1557" y="654" type="qcurve"/>
      <point x="1587" y="645" type="line"/>
      <point x="1552" y="544" type="line"/>
      <point x="1477" y="546"/>
      <point x="1350" y="546"/>
      <point x="1283" y="546" type="qcurve" smooth="yes"/>
      <point x="825" y="544" type="line"/>
      <point x="822" y="638" type="line"/>
      <point x="1370" y="646" type="line"/>
      <point x="1382" y="677"/>
      <point x="1405" y="774"/>
      <point x="1397" y="814" type="qcurve" smooth="yes"/>
      <point x="1389" y="853"/>
      <point x="1330" y="901"/>
      <point x="1273" y="901" type="qcurve" smooth="yes"/>
      <point x="1142" y="901"/>
      <point x="913" y="692"/>
      <point x="876" y="511" type="qcurve" smooth="yes"/>
      <point x="840" y="334"/>
      <point x="947" y="117"/>
      <point x="1084" y="112" type="qcurve" smooth="yes"/>
      <point x="1209" y="107"/>
      <point x="1385" y="203"/>
      <point x="1464" y="305" type="qcurve"/>
      <point x="1504" y="250" type="line"/>
      <point x="1525" y="222" type="line"/>
      <point x="1449" y="117"/>
      <point x="1192" y="-32"/>
      <point x="1024" y="-25" type="qcurve" smooth="yes"/>
      <point x="923" y="-21"/>
      <point x="780" y="86"/>
      <point x="741" y="177" type="qcurve"/>
      <point x="663" y="82"/>
      <point x="447" y="-24"/>
      <point x="324" y="-16" type="qcurve" smooth="yes"/>
      <point x="123" y="-2"/>
      <point x="-68" y="301"/>
    </contour>
    <contour>
      <point x="149" y="537" type="qcurve" smooth="yes"/>
      <point x="112" y="359"/>
      <point x="209" y="103"/>
      <point x="340" y="93" type="qcurve" smooth="yes"/>
      <point x="481" y="84"/>
      <point x="669" y="284"/>
      <point x="712" y="488" type="qcurve" smooth="yes"/>
      <point x="748" y="661"/>
      <point x="645" y="892"/>
      <point x="514" y="901" type="qcurve" smooth="yes"/>
      <point x="372" y="911"/>
      <point x="185" y="715"/>
    </contour>
  </outline>
</glyph>
<glyph name="gravecomb" format="2">
  <unicode hex="0300"/>
  <anchor x="97" y="1000" name="_top"/>
  <anchor x="194" y="1497" name="top"/>
  <outline>
    <contour>
      <point x="-2" y="1356" type="line" smooth="yes"/>
      <point x="-34" y="1382"/>
      <point x="-64" y="1432"/>
      <point x="-64" y="1466" type="qcurve" smooth="yes"/>
      <point x="-64" y="1502"/>
      <point x="-9" y="1556"/>
      <point x="37" y="1556" type="qcurve" smooth="yes"/>
      <point x="75" y="1556"/>
      <point x="129" y="1511"/>
      <point x="156" y="1470" type="qcurve" smooth="yes"/>
      <point x="325" y="1211" type="line"/>
      <point x="256" y="1150" type="line"/>
    </contour>
  </outline>
</glyph>
<glyph name="macroncomb" format="2">
  <unicode hex="0304"/>
  <anchor x="97" y="1000" name="_top"/>
  <anchor x="152" y="1281" name="top"/>
  <outline>
    <contour>
      <point x="-172" y="1182" type="line"/>
      <point x="-142" y="1329" type="line"/>
      <point x="458" y="1329" type="line"/>
      <point x="428" y="1182" type="line"/>
    </contour>
  </outline>
</glyph>
<glyph name="ringcomb" format="2">
  <unicode hex="030A"/>
  <anchor x="95" y="1000" name="_top"/>
  <anchor x="205" y="1565" name="top"/>
  <outline>
    <contour>
      <point x="-30" y="1359" type="qcurve" smooth="yes"/>
      <point x="-30" y="1449"/>
      <point x="101" y="1575"/>
      <point x="195" y="1575" type="qcurve" smooth="yes"/>
      <point x="289" y="1575"/>
      <point x="420" y="1449"/>
      <point x="420" y="1359" type="qcurve" smooth="yes"/>
      <point x="420" y="1269"/>
      <point x="289" y="1143"/>
      <point x="195" y="1143" type="qcurve" smooth="yes"/>
      <point x="101" y="1143"/>
      <point x="-30" y="1269"/>
    </contour>
    <contour>
      <point x="87" y="1359" type="qcurve" smooth="yes"/>
      <point x="87" y="1310"/>
      <point x="145" y="1251"/>
      <point x="195" y="1251" type="qcurve" smooth="yes"/>
      <point x="248" y="1251"/>
      <point x="303" y="1307"/>
      <point x="303" y="1359" type="qcurve" smooth="yes"/>
      <point x="303" y="1408"/>
      <point x="245" y="1467"/>
      <point x="195" y="1467" type="qcurve" smooth="yes"/>
      <point x="143" y="1467"/>
      <point x="87" y="1412"/>
    </contour>
  </outline>
</glyph>
<glyph name="commaaccentcomb" format="2">
  <unicode hex="0326"/>
  <anchor x="-97" y="0" name="_bottom"/>
  <anchor x="-233" y="-700" name="bottom"/>
  <outline>
    <contour>
      <point x="-334" y="-584" type="line"/>
      <point x="-295" y="-556"/>
      <point x="-193" y="-450"/>
      <point x="-175" y="-398" type="qcurve"/>
      <point x="-236" y="-398"/>
      <point x="-304" y="-333"/>
      <point x="-304" y="-282" type="qcurve" smooth="yes"/>
      <point x="-304" y="-233"/>
      <point x="-228" y="-166"/>
      <point x="-174" y="-166" type="qcurve" smooth="yes"/>
      <point x="-123" y="-166"/>
      <point x="-46" y="-249"/>
      <point x="-46" y="-321" type="qcurve" smooth="yes"/>
      <point x="-46" y="-410"/>
      <point x="-200" y="-587"/>
      <point x="-288" y="-640" type="qcurve"/>
    </contour>
  </outline>
</glyph>
<glyph name="kappa" format="2">
  <advance width="1082"/>
  <unicode hex="03BA"/>
  <outline>
    <contour>
      <point x="47" y="0" type="line"/>
      <point x="149" y="490" type="line"/>
      <point x="236" y="980" type="line"/>
      <point x="317" y="1002" type="line"/>
      <point x="362" y="1002" type="line"/>
      <point x="404" y="923" type="line"/>
      <point x="306" y="490" type="line"/>
      <point x="228" y="0" type="line"/>
    </contour>
    <contour>
      <point x="154" y="210" type="line"/>
      <point x="188" y="323" type="line"/>
      <point x="696" y="856" type="line" smooth="yes"/>
      <point x="792" y="958"/>
      <point x="878" y="1008"/>
      <point x="938" y="1010" type="qcurve"/>
      <point x="979" y="1010" type="line"/>
      <point x="997" y="977" type="line"/>
      <point x="967" y="825" type="line"/>
      <point x="879" y="841"/>
      <point x="759" y="808"/>
      <point x="696" y="746" type="qcurve" smooth="yes"/>
    </contour>
    <contour>
      <point x="672" y="-15" type="line"/>
      <point x="630" y="76" type="line"/>
      <point x="391" y="497" type="line"/>
      <point x="507" y="604" type="line"/>
      <point x="788" y="134" type="line"/>
      <point x="924" y="134" type="line"/>
      <point x="926" y="47" type="line"/>
    </contour>
  </outline>
</glyph>
<glyph name="ghe" format="2">
  <advance width="888"/>
  <unicode hex="0433"/>
  <anchor x="546" y="1000" name="top"/>
  <anchor x="382" y="498" name="center"/>
  <outline>
    <contour>
      <point x="480" y="891" type="qcurve" smooth="yes"/>
      <point x="400" y="891"/>
      <point x="236" y="792"/>
      <point x="170" y="698" type="qcurve"/>
      <point x="112" y="762" type="line"/>
      <point x="112" y="791" type="line"/>
      <point x="178" y="889"/>
      <point x="380" y="1018"/>
      <point x="520" y="1018" type="qcurve" smooth="yes"/>
      <point x="638" y="1018"/>
      <point x="768" y="900"/>
      <point x="768" y="789" type="qcurve" smooth="yes"/>
      <point x="768" y="686"/>
      <point x="603" y="527"/>
      <point x="420" y="462" type="qcurve" smooth="yes"/>
      <point x="270" y="408"/>
      <point x="169" y="309"/>
      <point x="169" y="235" type="qcurve" smooth="yes"/>
      <point x="169" y="176"/>
      <point x="241" y="110"/>
      <point x="314" y="110" type="qcurve" smooth="yes"/>
      <point x="444" y="110"/>
      <point x="617" y="222"/>
      <point x="685" y="316" type="qcurve"/>
      <point x="743" y="252" type="line"/>
      <point x="743" y="223" type="line"/>
      <point x="677" y="125"/>
      <point x="446" y="-17"/>
      <point x="300" y="-17" type="qcurve" smooth="yes"/>
      <point x="153" y="-17"/>
      <point x="0" y="116"/>
      <point x="0" y="227" type="qcurve" smooth="yes"/>
      <point x="0" y="339"/>
      <point x="150" y="495"/>
      <point x="308" y="547" type="qcurve" smooth="yes"/>
      <point x="467" y="599"/>
      <point x="598" y="708"/>
      <point x="598" y="781" type="qcurve" smooth="yes"/>
      <point x="598" y="843"/>
      <point x="539" y="891"/>
    </contour>
  </outline>
</glyph>
<glyph name="kaverticalstrokecyr" format="2">
  <advance width="1204"/>
  <unicode hex="049D"/>
  <outline>
    <contour>
      <point x="34" y="56" type="line"/>
      <point x="137" y="527" type="line"/>
      <point x="189" y="820" type="line"/>
      <point x="47" y="816" type="line"/>
      <point x="46" y="915" type="line"/>
      <point x="268" y="1003" type="line"/>
      <point x="313" y="1001" type="line"/>
      <point x="371" y="930" type="line"/>
      <point x="293" y="528" type="line"/>
      <point x="209" y="83" type="line"/>
      <point x="240" y="0" type="line"/>
      <point x="76" y="-23" type="line"/>
    </contour>
    <contour>
      <point x="910" y="134" type="line"/>
      <point x="1040" y="134" type="line"/>
      <point x="1040" y="46" type="line"/>
      <point x="904" y="-1" type="line" smooth="yes"/>
      <point x="870" y="-13"/>
      <point x="822" y="-3"/>
      <point x="809" y="16" type="qcurve" smooth="yes"/>
      <point x="516" y="450" type="line"/>
      <point x="610" y="568" type="line"/>
    </contour>
    <contour>
      <point x="469" y="227" type="line"/>
      <point x="353" y="227" type="line"/>
      <point x="463" y="792" type="line"/>
      <point x="579" y="792" type="line"/>
    </contour>
    <contour>
      <point x="449" y="426" type="line"/>
      <point x="754" y="832" type="line" smooth="yes"/>
      <point x="828" y="930"/>
      <point x="932" y="1013"/>
      <point x="988" y="1013" type="qcurve" smooth="yes"/>
      <point x="1047" y="1013"/>
      <point x="1114" y="953"/>
      <point x="1114" y="900" type="qcurve" smooth="yes"/>
      <point x="1114" y="818"/>
      <point x="1025" y="668"/>
      <point x="956" y="668" type="qcurve" smooth="yes"/>
      <point x="921" y="668" type="line"/>
      <point x="921" y="790"/>
      <point x="920" y="859"/>
      <point x="906" y="859" type="qcurve" smooth="yes"/>
      <point x="893" y="859"/>
      <point x="853" y="812"/>
      <point x="818" y="767" type="qcurve" smooth="yes"/>
      <point x="413" y="252" type="line"/>
    </contour>
  </outline>
</glyph>
<glyph name="Cheverticalstroke-cy" format="2">
  <advance width="1584"/>
  <unicode hex="04B8"/>
  <outline>
    <contour>
      <point x="498" y="1074" type="line" smooth="yes"/>
      <point x="457" y="868"/>
      <point x="623" y="706"/>
      <point x="832" y="706" type="qcurve" smooth="yes"/>
      <point x="945" y="706"/>
      <point x="1142" y="743"/>
      <point x="1250" y="780" type="qcurve"/>
      <point x="1229" y="671" type="line"/>
      <point x="1118" y="631"/>
      <point x="921" y="589"/>
      <point x="774" y="589" type="qcurve" smooth="yes"/>
      <point x="524" y="589"/>
      <point x="288" y="823"/>
      <point x="335" y="1081" type="qcurve" smooth="yes"/>
      <point x="386" y="1362" type="line"/>
      <point x="192" y="1385" type="line"/>
      <point x="204" y="1500" type="line"/>
      <point x="761" y="1500" type="line"/>
      <point x="739" y="1385" type="line"/>
      <point x="555" y="1362" type="line"/>
    </contour>
    <contour>
      <point x="822" y="0" type="line"/>
      <point x="841" y="100" type="line"/>
      <point x="1038" y="120" type="line"/>
      <point x="1172" y="788" type="line"/>
      <point x="1276" y="1362" type="line"/>
      <point x="1082" y="1385" type="line"/>
      <point x="1094" y="1500" type="line"/>
      <point x="1650" y="1500" type="line"/>
      <point x="1628" y="1385" type="line"/>
      <point x="1445" y="1362" type="line"/>
      <point x="1328" y="771" type="line"/>
      <point x="1207" y="120" type="line"/>
      <point x="1397" y="100" type="line"/>
      <point x="1388" y="0" type="line"/>
    </contour>
    <contour>
      <point x="950" y="1145" type="line"/>
      <point x="783" y="289" type="line"/>
      <point x="643" y="289" type="line"/>
      <point x="810" y="1145" type="line"/>
    </contour>
  </outline>
</glyph>
<glyph name="bullet" format="2">
  <advance width="616"/>
  <unicode hex="2022"/>
  <outline>
    <contour>
      <point x="-7" y="773" type="qcurve" smooth="yes"/>
      <point x="-7" y="889"/>
      <point x="155" y="1061"/>
      <point x="283" y="1061" type="qcurve" smooth="yes"/>
      <point x="407" y="1061"/>
      <point x="569" y="889"/>
      <point x="569" y="773" type="qcurve" smooth="yes"/>
      <point x="569" y="659"/>
      <point x="407" y="487"/>
      <point x="283" y="487" type="qcurve" smooth="yes"/>
      <point x="155" y="487"/>
      <point x="-7" y="659"/>
    </contour>
  </outline>
</glyph>
<glyph name="f_f" format="2">
  <advance width="1041"/>
  <unicode hex="FB00"/>
  <outline>
    <contour>
      <point x="-401" y="-405" type="line" smooth="yes"/>
      <point x="-391" y="-305" type="line"/>
      <point x="-257" y="-303" type="line" smooth="yes"/>
      <point x="-139" y="-301"/>
      <point x="-34" y="-155"/>
      <point x="20" y="147" type="qcurve" smooth="yes"/>
      <point x="155" y="905" type="line"/>
      <point x="167" y="942" type="line"/>
      <point x="222" y="1203" type="line" smooth="yes"/>
      <point x="259" y="1379"/>
      <point x="416" y="1516"/>
      <point x="526" y="1516" type="qcurve" smooth="yes"/>
      <point x="611" y="1516"/>
      <point x="709" y="1445"/>
      <point x="709" y="1395" type="qcurve" smooth="yes"/>
      <point x="709" y="1354"/>
      <point x="655" y="1303"/>
      <point x="628" y="1303" type="qcurve" smooth="yes"/>
      <point x="612" y="1303"/>
      <point x="606" y="1312"/>
      <point x="606" y="1330" type="qcurve" smooth="yes"/>
      <point x="606" y="1357"/>
      <point x="563" y="1386"/>
      <point x="529" y="1386" type="qcurve" smooth="yes"/>
      <point x="468" y="1386"/>
      <point x="374" y="1297"/>
      <point x="359" y="1197" type="qcurve" smooth="yes"/>
      <point x="321" y="938" type="line"/>
      <point x="320" y="913" type="line"/>
      <point x="189" y="214" type="line" smooth="yes"/>
      <point x="109" y="-210"/>
      <point x="-70" y="-447"/>
      <point x="-216" y="-447" type="qcurve"/>
    </contour>
    <contour>
      <point x="175" y="-317" type="line" smooth="yes"/>
      <point x="185" y="-217" type="line"/>
      <point x="319" y="-215" type="line" smooth="yes"/>
      <point x="437" y="-213"/>
      <point x="542" y="-67"/>
      <point x="596" y="235" type="qcurve" smooth="yes"/>
      <point x="715" y="905" type="line"/>
      <point x="727" y="942" type="line"/>
      <point x="794" y="1269" type="line" smooth="yes"/>
      <point x="830" y="1445"/>
      <point x="988" y="1582"/>
      <point x="1098" y="1582" type="qcurve" smooth="yes"/>
      <point x="1183" y="1582"/>
      <point x="1281" y="1511"/>
      <point x="1281" y="1461" type="qcurve" smooth="yes"/>
      <point x="1281" y="1420"/>
      <point x="1227" y="1369"/>
      <point x="1200" y="1369" type="qcurve" smooth="yes"/>
      <point x="1184" y="1369"/>
      <point x="1178" y="1378"/>
      <point x="1178" y="1396" type="qcurve" smooth="yes"/>
      <point x="1178" y="1423"/>
      <point x="1135" y="1452"/>
      <point x="1101" y="1452" type="qcurve" smooth="yes"/>
      <point x="1040" y="1452"/>
      <point x="946" y="1363"/>
      <point x="931" y="1263" type="qcurve" smooth="yes"/>
      <point x="881" y="938" type="line"/>
      <point x="880" y="913" type="line"/>
      <point x="765" y="302" type="line" smooth="yes"/>
      <point x="685" y="-122"/>
      <point x="506" y="-359"/>
      <point x="360" y="-359" type="qcurve"/>
    </contour>
    <contour>
      <point x="-24" y="864" type="line"/>
      <point x="-30" y="938" type="line"/>
      <point x="179" y="980" type="line"/>
      <point x="1099" y="978" type="line"/>
      <point x="1089" y="856" type="line"/>
      <point x="266" y="865" type="line"/>
      <point x="179" y="847" type="line"/>
    </contour>
  </outline>
</glyph>
<glyph name="fi" format="2">
  <advance width="1072"/>
  <unicode hex="FB01"/>
  <outline>
    <contour>
      <point x="26" y="194" type="qcurve" smooth="yes"/>
      <point x="153" y="905" type="line"/>
      <point x="165" y="942" type="line"/>
      <point x="218" y="1190" type="line" smooth="yes"/>
      <point x="272" y="1443"/>
      <point x="463" y="1582"/>
      <point x="573" y="1582" type="qcurve" smooth="yes"/>
      <point x="658" y="1582"/>
      <point x="766" y="1508"/>
      <point x="766" y="1458" type="qcurve" smooth="yes"/>
      <point x="766" y="1417"/>
      <point x="712" y="1366"/>
      <point x="685" y="1366" type="qcurve" smooth="yes"/>
      <point x="669" y="1366"/>
      <point x="663" y="1375"/>
      <point x="663" y="1393" type="qcurve" smooth="yes"/>
      <point x="663" y="1420"/>
      <point x="610" y="1452"/>
      <point x="576" y="1452" type="qcurve" smooth="yes"/>
      <point x="515" y="1452"/>
      <point x="388" y="1362"/>
      <point x="359" y="1184" type="qcurve" smooth="yes"/>
      <point x="319" y="938" type="line"/>
      <point x="318" y="913" type="line"/>
      <point x="196" y="260" type="line" smooth="yes"/>
      <point x="108" y="-210"/>
      <point x="-72" y="-447"/>
      <point x="-218" y="-447" type="qcurve"/>
      <point x="-401" y="-405" type="line"/>
      <point x="-393" y="-305" type="line"/>
      <point x="-259" y="-303" type="line" smooth="yes"/>
      <point x="-141" y="-301"/>
      <point x="-36" y="-155"/>
    </contour>
    <contour>
      <point x="-26" y="864" type="line"/>
      <point x="-32" y="938" type="line"/>
      <point x="177" y="980" type="line"/>
      <point x="718" y="978" type="line"/>
      <point x="708" y="856" type="line"/>
      <point x="264" y="865" type="line"/>
      <point x="177" y="847" type="line"/>
    </contour>
    <contour>
      <point x="583" y="-21" type="line"/>
      <point x="542" y="68" type="line"/>
      <point x="636" y="527" type="line"/>
      <point x="697" y="845" type="line"/>
      <point x="617" y="865" type="line"/>
      <point x="619" y="947" type="line"/>
      <point x="781" y="999" type="line"/>
      <point x="841" y="999" type="line"/>
      <point x="890" y="883" type="line"/>
      <point x="841" y="739" type="line"/>
      <point x="725" y="140" type="line"/>
      <point x="916" y="164" type="line"/>
      <point x="916" y="76" type="line"/>
    </contour>
  </outline>
</glyph>
<glyph name="fl" format="2">
  <advance width="986"/>
  <unicode hex="FB02"/>
  <outline>
    <contour>
      <point x="-401" y="-405" type="line"/>
      <point x="-393" y="-305" type="line"/>
      <point x="-259" y="-303" type="line" smooth="yes"/>
      <point x="-141" y="-301"/>
      <point x="-36" y="-155"/>
      <point x="26" y="194" type="qcurve" smooth="yes"/>
      <point x="153" y="905" type="line"/>
      <point x="165" y="942" type="line"/>
      <point x="218" y="1190" type="line" smooth="yes"/>
      <point x="272" y="1443"/>
      <point x="463" y="1582"/>
      <point x="573" y="1582" type="qcurve" smooth="yes"/>
      <point x="658" y="1582"/>
      <point x="766" y="1508"/>
      <point x="766" y="1458" type="qcurve" smooth="yes"/>
      <point x="766" y="1417"/>
      <point x="712" y="1366"/>
      <point x="685" y="1366" type="qcurve" smooth="yes"/>
      <point x="669" y="1366"/>
      <point x="663" y="1375"/>
      <point x="663" y="1393" type="qcurve" smooth="yes"/>
      <point x="663" y="1420"/>
      <point x="610" y="1452"/>
      <point x="576" y="1452" type="qcurve" smooth="yes"/>
      <point x="515" y="1452"/>
      <point x="388" y="1362"/>
      <point x="359" y="1184" type="qcurve" smooth="yes"/>
      <point x="319" y="938" type="line"/>
      <point x="318" y="913" type="line"/>
      <point x="196" y="260" type="line" smooth="yes"/>
      <point x="108" y="-210"/>
      <point x="-72" y="-447"/>
      <point x="-218" y="-447" type="qcurve"/>
    </contour>
    <contour>
      <point x="-26" y="864" type="line"/>
      <point x="-32" y="938" type="line"/>
      <point x="177" y="980" type="line"/>
      <point x="657" y="978" type="line"/>
      <point x="647" y="856" type="line"/>
      <point x="264" y="865" type="line"/>
      <point x="177" y="847" type="line"/>
    </contour>
    <contour>
      <point x="601" y="-14" type="line"/>
      <point x="554" y="86" type="line"/>
      <point x="663" y="606" type="line"/>
      <point x="803" y="1365" type="line"/>
      <point x="679" y="1457" type="line"/>
      <point x="707" y="1529" type="line"/>
      <point x="908" y="1563" type="line"/>
      <point x="995" y="1493" type="line"/>
      <point x="821" y="588" type="line"/>
      <point x="738" y="134" type="line"/>
      <point x="934" y="154" type="line"/>
      <point x="934" y="66" type="line"/>
    </contour>
  </outline>
</glyph>
<glyph name="f_f_i" format="2">
  <advance width="1633"/>
  <unicode hex="FB03"/>
  <outline>
    <contour>
      <point x="-401" y="-405" type="line" smooth="yes"/>
      <point x="-391" y="-305" type="line"/>
      <point x="-257" y="-303" type="line" smooth="yes"/>
      <point x="-139" y="-301"/>
      <point x="-34" y="-153"/>
      <point x="20" y="149" type="qcurve" smooth="yes"/>
      <point x="155" y="907" type="line"/>
      <point x="167" y="942" type="line"/>
      <point x="222" y="1203" type="line" smooth="yes"/>
      <point x="259" y="1379"/>
      <point x="416" y="1516"/>
      <point x="526" y="1516" type="qcurve" smooth="yes"/>
      <point x="611" y="1516"/>
      <point x="709" y="1445"/>
      <point x="709" y="1395" type="qcurve" smooth="yes"/>
      <point x="709" y="1354"/>
      <point x="655" y="1303"/>
      <point x="628" y="1303" type="qcurve" smooth="yes"/>
      <point x="612" y="1303"/>
      <point x="606" y="1312"/>
      <point x="606" y="1330" type="qcurve" smooth="yes"/>
      <point x="606" y="1357"/>
      <point x="563" y="1386"/>
      <point x="529" y="1386" type="qcurve" smooth="yes"/>
      <point x="468" y="1386"/>
      <point x="374" y="1297"/>
      <point x="359" y="1197" type="qcurve" smooth="yes"/>
      <point x="321" y="938" type="line"/>
      <point x="320" y="913" type="line"/>
      <point x="189" y="214" type="line" smooth="yes"/>
      <point x="109" y="-210"/>
      <point x="-70" y="-447"/>
      <point x="-216" y="-447" type="qcurve"/>
    </contour>
    <contour>
      <point x="175" y="-317" type="line" smooth="yes"/>
      <point x="185" y="-217" type="line"/>
      <point x="319" y="-215" type="line" smooth="yes"/>
      <point x="437" y="-213"/>
      <point x="542" y="-67"/>
      <point x="596" y="235" type="qcurve" smooth="yes"/>
      <point x="715" y="905" type="line"/>
      <point x="727" y="942" type="line"/>
      <point x="780" y="1190" type="line" smooth="yes"/>
      <point x="834" y="1443"/>
      <point x="1025" y="1582"/>
      <point x="1135" y="1582" type="qcurve" smooth="yes"/>
      <point x="1220" y="1582"/>
      <point x="1328" y="1508"/>
      <point x="1328" y="1458" type="qcurve" smooth="yes"/>
      <point x="1328" y="1417"/>
      <point x="1274" y="1366"/>
      <point x="1247" y="1366" type="qcurve" smooth="yes"/>
      <point x="1231" y="1366"/>
      <point x="1225" y="1375"/>
      <point x="1225" y="1393" type="qcurve" smooth="yes"/>
      <point x="1225" y="1420"/>
      <point x="1172" y="1452"/>
      <point x="1138" y="1452" type="qcurve" smooth="yes"/>
      <point x="1077" y="1452"/>
      <point x="950" y="1362"/>
      <point x="921" y="1184" type="qcurve" smooth="yes"/>
      <point x="881" y="938" type="line"/>
      <point x="880" y="913" type="line"/>
      <point x="765" y="302" type="line" smooth="yes"/>
      <point x="685" y="-122"/>
      <point x="506" y="-359"/>
      <point x="360" y="-359" type="qcurve"/>
    </contour>
    <contour>
      <point x="1145" y="-21" type="line"/>
      <point x="1104" y="68" type="line"/>
      <point x="1198" y="527" type="line"/>
      <point x="1249" y="827" type="line"/>
      <point x="1166" y="848" type="line"/>
      <point x="1168" y="948" type="line"/>
      <point x="1333" y="1001" type="line"/>
      <point x="1403" y="1001" type="line"/>
      <point x="1452" y="885" type="line"/>
      <point x="1401" y="742" type="line"/>
      <point x="1287" y="140" type="line"/>
      <point x="1478" y="164" type="line"/>
      <point x="1478" y="76" type="line"/>
    </contour>
    <contour>
      <point x="-24" y="864" type="line"/>
      <point x="-30" y="938" type="line"/>
      <point x="179" y="980" type="line"/>
      <point x="1241" y="967" type="line"/>
      <point x="1231" y="845" type="line"/>
      <point x="266" y="865" type="line"/>
      <point x="179" y="847" type="line"/>
    </contour>
  </outline>
</glyph>
<glyph name="f_f_l" format="2">
  <advance width="1548"/>
  <unicode hex="FB04"/>
  <outline>
    <contour>
      <point x="-401" y="-405" type="line" smooth="yes"/>
      <point x="-391" y="-305" type="line"/>
      <point x="-257" y="-303" type="line" smooth="yes"/>
      <point x="-139" y="-301"/>
      <point x="-34" y="-155"/>
      <point x="20" y="147" type="qcurve" smooth="yes"/>
      <point x="155" y="905" type="line"/>
      <point x="167" y="942" type="line"/>
      <point x="222" y="1203" type="line" smooth="yes"/>
      <point x="259" y="1379"/>
      <point x="416" y="1516"/>
      <point x="526" y="1516" type="qcurve" smooth="yes"/>
      <point x="611" y="1516"/>
      <point x="709" y="1445"/>
      <point x="709" y="1395" type="qcurve" smooth="yes"/>
      <point x="709" y="1354"/>
      <point x="655" y="1303"/>
      <point x="628" y="1303" type="qcurve" smooth="yes"/>
      <point x="612" y="1303"/>
      <point x="606" y="1312"/>
      <point x="606" y="1330" type="qcurve" smooth="yes"/>
      <point x="606" y="1357"/>
      <point x="563" y="1386"/>
      <point x="529" y="1386" type="qcurve" smooth="yes"/>
      <point x="468" y="1386"/>
      <point x="374" y="1297"/>
      <point x="359" y="1197" type="qcurve" smooth="yes"/>
      <point x="321" y="938" type="line"/>
      <point x="320" y="913" type="line"/>
      <point x="189" y="214" type="line" smooth="yes"/>
      <point x="109" y="-210"/>
      <point x="-70" y="-447"/>
      <point x="-216" y="-447" type="qcurve"/>
    </contour>
    <contour>
      <point x="175" y="-317" type="line" smooth="yes"/>
      <point x="185" y="-217" type="line"/>
      <point x="319" y="-215" type="line" smooth="yes"/>
      <point x="437" y="-213"/>
      <point x="542" y="-67"/>
      <point x="596" y="235" type="qcurve" smooth="yes"/>
      <point x="715" y="905" type="line"/>
      <point x="727" y="942" type="line"/>
      <point x="780" y="1190" type="line" smooth="yes"/>
      <point x="834" y="1443"/>
      <point x="1025" y="1582"/>
      <point x="1135" y="1582" type="qcurve" smooth="yes"/>
      <point x="1220" y="1582"/>
      <point x="1328" y="1508"/>
      <point x="1328" y="1458" type="qcurve" smooth="yes"/>
      <point x="1328" y="1417"/>
      <point x="1274" y="1366"/>
      <point x="1247" y="1366" type="qcurve" smooth="yes"/>
      <point x="1231" y="1366"/>
      <point x="1225" y="1375"/>
      <point x="1225" y="1393" type="qcurve" smooth="yes"/>
      <point x="1225" y="1420"/>
      <point x="1172" y="1452"/>
      <point x="1138" y="1452" type="qcurve" smooth="yes"/>
      <point x="1077" y="1452"/>
      <point x="950" y="1362"/>
      <point x="921" y="1184" type="qcurve" smooth="yes"/>
      <point x="881" y="938" type="line"/>
      <point x="880" y="913" type="line"/>
      <point x="765" y="302" type="line" smooth="yes"/>
      <point x="685" y="-122"/>
      <point x="506" y="-359"/>
      <point x="360" y="-359" type="qcurve"/>
    </contour>
    <contour>
      <point x="-24" y="864" type="line"/>
      <point x="-30" y="938" type="line"/>
      <point x="179" y="980" type="line"/>
      <point x="1166" y="980" type="line"/>
      <point x="1156" y="858" type="line"/>
      <point x="266" y="865" type="line"/>
      <point x="179" y="847" type="line"/>
    </contour>
    <contour>
      <point x="1163" y="-14" type="line"/>
      <point x="1116" y="86" type="line"/>
      <point x="1225" y="606" type="line"/>
      <point x="1365" y="1365" type="line"/>
      <point x="1241" y="1457" type="line"/>
      <point x="1269" y="1529" type="line"/>
      <point x="1470" y="1563" type="line"/>
      <point x="1557" y="1493" type="line"/>
      <point x="1383" y="588" type="line"/>
      <point x="1300" y="134" type="line"/>
      <point x="1496" y="154" type="line"/>
      <point x="1496" y="66" type="line"/>
    </contour>
  </outline>
</glyph>
<glyph name="Yu-dash.case" format="2">
  <advance width="2108"/>
  <anchor x="355" y="795" name="_yu_dash"/>
  <anchor x="779" y="795" name="yu_dash"/>
  <outline>
    <contour>
      <point x="345" y="738" type="line"/>
      <point x="366" y="855" type="line"/>
      <point x="789" y="851" type="line"/>
      <point x="770" y="742" type="line"/>
    </contour>
  </outline>
</glyph>
<glyph name="caroncomb.case" format="2">
  <anchor x="98.0" y="1500" name="_top"/>
  <anchor x="197.0" y="2011" name="top"/>
  <outline>
    <contour>
      <point x="133.0" y="1646.0" type="qcurve" smooth="yes"/>
      <point x="99.0" y="1646.0"/>
      <point x="64.0" y="1679.0"/>
      <point x="39.0" y="1719.0" type="qcurve" smooth="yes"/>
      <point x="-113.0" y="1962.0" type="line"/>
      <point x="-32.0" y="2035.0" type="line"/>
      <point x="158.0" y="1820.0" type="line"/>
      <point x="438.0" y="2035.0" type="line"/>
      <point x="513.0" y="1962.0" type="line"/>
      <point x="259.0" y="1719.0" type="line" smooth="yes"/>
      <point x="207.0" y="1670.0"/>
      <point x="167.0" y="1646.0"/>
    </contour>
  </outline>
</glyph>
<glyph name="commaaccentcomb.case" format="2">
  <anchor x="-87" y="50" name="_bottom"/>
  <anchor x="-233" y="-700" name="bottom"/>
  <outline>
    <contour>
      <point x="-295" y="-536" type="line"/>
      <point x="-256" y="-508"/>
      <point x="-154" y="-402"/>
      <point x="-136" y="-350" type="qcurve"/>
      <point x="-197" y="-350"/>
      <point x="-265" y="-285"/>
      <point x="-265" y="-234" type="qcurve" smooth="yes"/>
      <point x="-265" y="-185"/>
      <point x="-189" y="-112"/>
      <point x="-135" y="-112" type="qcurve" smooth="yes"/>
      <point x="-84" y="-112"/>
      <point x="-7" y="-201"/>
      <point x="-7" y="-273" type="qcurve" smooth="yes"/>
      <point x="-7" y="-362"/>
      <point x="-161" y="-539"/>
      <point x="-249" y="-592" type="qcurve"/>
    </contour>
  </outline>
</glyph>
<glyph name="dblgravecomb.case" format="2">
  <anchor x="195" y="1500" name="_top"/>
  <anchor x="291" y="1994" name="top"/>
  <outline>
    <contour>
      <point x="-213" y="1928" type="qcurve" smooth="yes"/>
      <point x="-213" y="1964"/>
      <point x="-159" y="2014"/>
      <point x="-123" y="2014" type="qcurve" smooth="yes"/>
      <point x="-87" y="2014"/>
      <point x="-26" y="1955"/>
      <point x="6" y="1915" type="qcurve" smooth="yes"/>
      <point x="188" y="1690" type="line"/>
      <point x="111" y="1612" type="line"/>
      <point x="-124" y="1808" type="line" smooth="yes"/>
      <point x="-163" y="1840"/>
      <point x="-213" y="1892"/>
    </contour>
    <contour>
      <point x="177" y="1928" type="qcurve" smooth="yes"/>
      <point x="177" y="1964"/>
      <point x="231" y="2014"/>
      <point x="267" y="2014" type="qcurve" smooth="yes"/>
      <point x="303" y="2014"/>
      <point x="364" y="1955"/>
      <point x="396" y="1915" type="qcurve" smooth="yes"/>
      <point x="578" y="1690" type="line"/>
      <point x="501" y="1612" type="line"/>
      <point x="266" y="1808" type="line" smooth="yes"/>
      <point x="227" y="1840"/>
      <point x="177" y="1892"/>
    </contour>
  </outline>
</glyph>
<glyph name="horncomb.case" format="2">
  <anchor x="98.0" y="1500" name="_topright"/>
  <anchor x="155.0" y="1790" name="topright"/>
  <outline>
    <contour>
      <point x="98.0" y="1500.0" type="line"/>
      <point x="121.0" y="1500.0"/>
      <point x="196.0" y="1500.0"/>
      <point x="216.0" y="1500.0" type="qcurve" smooth="yes"/>
      <point x="284.0" y="1500.0"/>
      <point x="355.0" y="1543.0"/>
      <point x="366.0" y="1580.0" type="qcurve" smooth="yes"/>
      <point x="378.0" y="1622.0"/>
      <point x="388.0" y="1704.0"/>
      <point x="391.0" y="1773.0" type="qcurve"/>
      <point x="526.0" y="1773.0" type="line"/>
      <point x="539.0" y="1731.0"/>
      <point x="545.0" y="1598.0"/>
      <point x="531.0" y="1532.0" type="qcurve" smooth="yes"/>
      <point x="512.0" y="1443.0"/>
      <point x="366.0" y="1366.0"/>
      <point x="262.0" y="1366.0" type="qcurve" smooth="yes"/>
      <point x="222.0" y="1366.0"/>
      <point x="104.0" y="1382.0"/>
      <point x="76.0" y="1392.0" type="qcurve"/>
    </contour>
  </outline>
</glyph>
<glyph name="ogonekcomb.case" format="2">
  <anchor x="-97" y="0" name="_ogonek"/>
  <anchor x="-195" y="-497" name="bottom"/>
  <outline>
    <contour>
      <point x="-252" y="-214" type="qcurve" smooth="yes"/>
      <point x="-262" y="-262"/>
      <point x="-213" y="-317"/>
      <point x="-162" y="-317" type="qcurve" smooth="yes"/>
      <point x="-110" y="-317"/>
      <point x="27" y="-271"/>
      <point x="99" y="-224" type="qcurve"/>
      <point x="134" y="-327" type="line"/>
      <point x="68" y="-388"/>
      <point x="-110" y="-467"/>
      <point x="-210" y="-467" type="qcurve" smooth="yes"/>
      <point x="-310" y="-467"/>
      <point x="-427" y="-359"/>
      <point x="-427" y="-276" type="qcurve" smooth="yes"/>
      <point x="-427" y="-193"/>
      <point x="-275" y="-15"/>
      <point x="-192" y="38" type="qcurve" smooth="yes"/>
      <point x="-125" y="81" type="line"/>
      <point x="-31" y="30" type="line"/>
      <point x="-83" y="-12" type="line" smooth="yes"/>
      <point x="-160" y="-74"/>
      <point x="-243" y="-169"/>
    </contour>
  </outline>
</glyph>
<glyph name="ze.bgr" format="2">
  <advance width="843"/>
  <outline>
    <contour>
      <point x="609" y="2" type="qcurve" smooth="yes"/>
      <point x="559" y="-210"/>
      <point x="208" y="-464"/>
      <point x="34" y="-464" type="qcurve"/>
      <point x="-134" y="-424" type="line"/>
      <point x="-132" y="-348" type="line"/>
      <point x="52" y="-337" type="line" smooth="yes"/>
      <point x="188" y="-329"/>
      <point x="419" y="-131"/>
      <point x="453" y="27" type="qcurve" smooth="yes"/>
      <point x="485" y="177"/>
      <point x="389" y="318"/>
      <point x="236" y="306" type="qcurve" smooth="yes"/>
      <point x="124" y="297" type="line"/>
      <point x="147" y="406" type="line"/>
      <point x="247" y="412" type="line" smooth="yes"/>
      <point x="375" y="420"/>
      <point x="504" y="556"/>
      <point x="523" y="656" type="qcurve" smooth="yes"/>
      <point x="541" y="762"/>
      <point x="461" y="881"/>
      <point x="378" y="881" type="qcurve" smooth="yes"/>
      <point x="281" y="881"/>
      <point x="142" y="799"/>
      <point x="94" y="732" type="qcurve"/>
      <point x="36" y="796" type="line"/>
      <point x="36" y="825" type="line"/>
      <point x="93" y="905"/>
      <point x="275" y="1018"/>
      <point x="406" y="1018" type="qcurve" smooth="yes"/>
      <point x="561" y="1018"/>
      <point x="717" y="817"/>
      <point x="691" y="667" type="qcurve" smooth="yes"/>
      <point x="670" y="546"/>
      <point x="543" y="405"/>
      <point x="438" y="374" type="qcurve"/>
      <point x="437" y="370" type="line"/>
      <point x="537" y="352"/>
      <point x="650" y="173"/>
    </contour>
  </outline>
</glyph>
